<svg xmlns="http://www.w3.org/2000/svg" width="119.984" height="189.236" viewBox="0 0 119.984 189.236">
  <g id="Group_608" data-name="Group 608" transform="translate(-451.935 -643.834)">
    <rect id="Rectangle_1249" data-name="Rectangle 1249" width="102" height="151" transform="translate(460 665)" fill="#3f2683"/>
    <path id="phone_android" data-name="phone android" d="M105.086,146.155V25.768H14.9V146.155ZM77.3,171.923v-8.455H42.679v8.455ZM94.215,0a24.764,24.764,0,0,1,18.118,7.65,24.764,24.764,0,0,1,7.65,18.118v137.7a26.127,26.127,0,0,1-25.768,25.768H25.768a24.764,24.764,0,0,1-18.118-7.65A24.764,24.764,0,0,1,0,163.468V25.768A24.764,24.764,0,0,1,7.65,7.65,24.764,24.764,0,0,1,25.768,0Z" transform="translate(451.935 643.834)" fill="#fff"/>
    <path id="telephone" d="M55.709,44.038a2.362,2.362,0,0,1-.778,2.334L47.15,54.152a5.574,5.574,0,0,1-3.112,1.556H42.949q-12.76,0-27.854-15.094T0,11.671A5.574,5.574,0,0,1,1.556,8.559L9.492.778A2.547,2.547,0,0,1,11.36,0a2.492,2.492,0,0,1,2.334,1.556l6.38,11.826a3.233,3.233,0,0,1-.778,4.046l-2.8,2.957a1.056,1.056,0,0,0-.311.778q.156,3.89,7.314,11.048a39.663,39.663,0,0,0,5.913,4.98,15.905,15.905,0,0,0,4.046,2.179l1.245.311q.156,0,.622-.467l3.423-3.268a3.427,3.427,0,0,1,2.49-1.089,3,3,0,0,1,1.556.467h.156l11.36,6.691A2.927,2.927,0,0,1,55.709,44.038Zm0,13.694" transform="translate(485 701.269)" fill="#fff"/>
  </g>
</svg>
