<svg id="Group_291" data-name="Group 291" xmlns="http://www.w3.org/2000/svg" width="311.845" height="108.7" viewBox="0 0 311.845 108.7">
  <g id="Group_289" data-name="Group 289" transform="translate(0 65.696)">
    <path id="Path_547" data-name="Path 547" d="M17.115,43.4a11.178,11.178,0,0,1-6.029,1.923c-3.291,0-5.608-2.21-5.608-4.923,0-3.135,2.844-5.056,5.9-5.056a10.676,10.676,0,0,1,5.663,1.921v-4.74a20.339,20.339,0,0,0-6.872-1.34C4.793,31.184,0,34.026,0,40.321c0,5.448,3.792,9.16,10.085,9.16a14.854,14.854,0,0,0,7.03-1.58Z" transform="translate(0 -31.184)" fill="#1d1d1b"/>
    <path id="Path_548" data-name="Path 548" d="M23.4,46.632V33.545H18.77v7.689c-.341.5-1.237,2.054-2.817,2.054-2,0-1.9-2.107-1.9-2.947v-6.8H9.424v7.689c0,1.184-.158,5.633,4.713,5.633a5.826,5.826,0,0,0,4.633-2.1v1.869Z" transform="translate(10.429 -28.571)" fill="#1d1d1b"/>
    <path id="Path_549" data-name="Path 549" d="M40.838,38.779c0-3.373-1.5-5.345-4.713-5.345a6.394,6.394,0,0,0-5.081,2.553,4.339,4.339,0,0,0-4.291-2.553,5.861,5.861,0,0,0-4.609,2.107V33.668H17.51V46.755h4.633V39.065c.554-.708,1.317-2.052,2.791-2.052,1.527,0,1.923,1.131,1.923,2.764v6.977H31.49V39.065c.343-.5,1.291-2.052,2.817-2.052,1.291,0,1.9.9,1.9,2.764v6.977h4.635Z" transform="translate(19.378 -28.694)" fill="#1d1d1b"/>
    <path id="Path_550" data-name="Path 550" d="M39.577,42.567c0,2.975-1.9,3.316-2.553,3.316a3.3,3.3,0,0,1-2.345-.923v-5a4.47,4.47,0,0,1,2.345-.843c1.237,0,2.553,1.053,2.553,3.451m4.871.1c0-3.4-1.869-6.87-6.267-6.87a6.006,6.006,0,0,0-3.5,1V31.3H30.046V49.121h4.633V47.937a5.279,5.279,0,0,0,3.817,1.42c2.633,0,5.951-1.869,5.951-6.687" transform="translate(33.252 -31.06)" fill="#1d1d1b"/>
    <path id="Path_551" data-name="Path 551" d="M47.468,39.042h-5a2.558,2.558,0,0,1,2.581-2.768c1.553,0,2.423,1.108,2.423,2.768m4.344,2.29v-.923c0-5.267-3.554-6.975-6.478-6.975-5,0-7.5,2.92-7.5,6.712s2.5,6.845,7.5,6.845A12.393,12.393,0,0,0,51.471,45.6V42.727a12.375,12.375,0,0,1-5.161,1.317A3.667,3.667,0,0,1,42.6,41.332Z" transform="translate(41.869 -28.694)" fill="#1d1d1b"/>
    <path id="Path_552" data-name="Path 552" d="M45.643,33.67V46.757h4.635V41.121c.921-2.528,1.869-3.109,3.053-3.109a2.9,2.9,0,0,1,2.134,1l1.711-4.635a4.841,4.841,0,0,0-2.764-.946c-2.237,0-3.714,2.237-4.133,3.4V33.67Z" transform="translate(50.513 -28.694)" fill="#1d1d1b"/>
  </g>
  <rect id="Rectangle_1256" data-name="Rectangle 1256" width="4.635" height="17.825" transform="translate(109.53 65.931)" fill="#1d1d1b"/>
  <g id="Group_290" data-name="Group 290" transform="translate(116.851 65.931)">
    <path id="Path_553" data-name="Path 553" d="M63.155,43.6a3.664,3.664,0,0,1-1.9.9A1.236,1.236,0,0,1,60,43.149c0-1.342,1.342-1.9,3.16-2.659Zm6.451,2.5V43.676a3.151,3.151,0,0,1-1.184.369c-.5,0-.634-.5-.634-1.422V37.568c0-2.5-1.816-4.135-5.711-4.135a10.567,10.567,0,0,0-6.162,1.791V38.78a7.489,7.489,0,0,1,5.187-2.4c1.9,0,2.054,1.053,2.054,2.029a16.02,16.02,0,0,1-2.711.948c-2.844.893-4.978,1.789-4.978,4.344,0,1.42.817,3.291,3.9,3.291A5.771,5.771,0,0,0,63.419,45.6c.156.472.472,1.395,2.237,1.395a9.659,9.659,0,0,0,3.95-.9" transform="translate(-55.466 -28.931)" fill="#1d1d1b"/>
    <path id="Path_554" data-name="Path 554" d="M63.115,33.67V46.757H67.75V39.065c.421-.55,1.264-2.052,2.817-2.052,2,0,1.9,2.107,1.9,2.947v6.8H77.1V39.065c0-1.182.158-5.631-4.713-5.631a5.885,5.885,0,0,0-4.633,2.1V33.67Z" transform="translate(-47.001 -28.93)" fill="#1d1d1b"/>
    <path id="Path_555" data-name="Path 555" d="M80.668,44.96a3.36,3.36,0,0,1-2.343.923c-1.157,0-2.553-.79-2.553-3.316,0-2.187,1.133-3.451,2.553-3.451a4.555,4.555,0,0,1,2.343.843ZM85.3,49.121V31.3H80.668v5.5a5.57,5.57,0,0,0-3.5-1c-4.4,0-6.267,3.474-6.267,6.87,0,4.818,3.318,6.687,5.951,6.687a5.273,5.273,0,0,0,3.815-1.42v1.184Z" transform="translate(-38.384 -31.296)" fill="#1d1d1b"/>
  </g>
  <path id="Path_556" data-name="Path 556" d="M81.776,31.3V49.121H95.386V44.856H87.148V31.3Z" transform="translate(90.502 34.635)" fill="#1d1d1b"/>
  <path id="Path_557" data-name="Path 557" d="M99.01,40.2c0,2-.893,3.341-2.633,3.341S93.744,42.2,93.744,40.2s.9-3.32,2.633-3.32S99.01,38.2,99.01,40.2m4.871,0c0-3.819-2.5-6.767-7.5-6.767s-7.5,2.947-7.5,6.767,2.5,6.79,7.5,6.79,7.5-2.975,7.5-6.79" transform="translate(98.356 37.002)" fill="#1d1d1b"/>
  <path id="Path_558" data-name="Path 558" d="M106.577,44.96a3.37,3.37,0,0,1-2.343.923c-1.159,0-2.553-.79-2.553-3.316,0-2.187,1.131-3.451,2.553-3.451a4.555,4.555,0,0,1,2.343.843Zm4.635,4.161V31.3h-4.635v5.5a5.573,5.573,0,0,0-3.5-1c-4.4,0-6.265,3.474-6.265,6.87,0,4.818,3.316,6.687,5.949,6.687a5.279,5.279,0,0,0,3.817-1.42v1.184Z" transform="translate(107.14 34.635)" fill="#1d1d1b"/>
  <path id="Path_559" data-name="Path 559" d="M113.428,38.549a2.2,2.2,0,0,1-2.313,2.132,2.056,2.056,0,0,1-2.161-2.081,2.255,2.255,0,0,1,2.29-2.237,2.192,2.192,0,0,1,2.185,2.187m-1.892,9.162c.632,0,2.817.053,2.817,1.369,0,1.053-1.239,1.527-2.9,1.527-.554,0-2.949,0-2.949-1.477,0-1,.893-1.42,3.029-1.42m7-11.376V33.546h-7.186c-3.554,0-6.425,1.473-6.425,5a4.42,4.42,0,0,0,3.607,4.211,2.274,2.274,0,0,0-2,2.212,1.849,1.849,0,0,0,1.131,1.66c-2.869.369-3.105,2.212-3.105,2.739,0,1.944,1.841,3.447,6.765,3.447,5,0,6.716-1.789,6.716-4.159,0-3.4-3.716-3.687-5.033-3.792-1.763-.158-2.341-.185-2.341-.817,0-.712,1-.841,1.605-.87,3.369-.183,5.189-2.1,5.189-4.262a3.286,3.286,0,0,0-1.213-2.583Z" transform="translate(115.716 37.126)" fill="#1d1d1b"/>
  <path id="Path_560" data-name="Path 560" d="M121.556,39.042h-5a2.558,2.558,0,0,1,2.581-2.768c1.553,0,2.423,1.108,2.423,2.768m4.344,2.29v-.923c0-5.267-3.554-6.975-6.478-6.975-5,0-7.5,2.92-7.5,6.712s2.5,6.845,7.5,6.845a12.392,12.392,0,0,0,6.137-1.393V42.727a12.375,12.375,0,0,1-5.161,1.317,3.667,3.667,0,0,1-3.712-2.711Z" transform="translate(123.863 37.002)" fill="#1d1d1b"/>
  <path id="Path_561" data-name="Path 561" d="M112.354,11.962a6.075,6.075,0,0,0-4.047-5.574L89.4,0,70.5,6.388a6.073,6.073,0,0,0-4.051,5.574H66.43V57.423H90.253V41.011a1.435,1.435,0,0,1,1.317-1.529h1.346c-.278-.419-.868-.689-.868-1.837,0-1.414,2.456-2.208,2.456-2.208h0s2.459.794,2.459,2.208c0,1.148-.588,1.418-.868,1.837h1.346a1.435,1.435,0,0,1,1.317,1.529V57.423h13.609V11.962Z" transform="translate(73.519)" fill="#0e4194"/>
  <path id="Path_562" data-name="Path 562" d="M71.012,6.4A3.315,3.315,0,0,1,72.9,6.052a2.292,2.292,0,0,1,1.2.927,1.853,1.853,0,0,1-.059-1.047,1.468,1.468,0,0,1,.784-.961l1.89-.929V6.163a1.905,1.905,0,0,1-.291,1.079,1.1,1.1,0,0,1-.758.491,1.1,1.1,0,0,1,.758.493A1.9,1.9,0,0,1,76.715,9.3v2.119l-1.89-.931a1.454,1.454,0,0,1-.784-.959A1.845,1.845,0,0,1,74.1,8.489a2.3,2.3,0,0,1-1.2.925,3.28,3.28,0,0,1-1.886-.343C70.816,9,69.236,8.31,67.9,7.733,69.236,7.156,70.816,6.471,71.012,6.4Z" transform="translate(75.143 4.473)" fill="#59c6f2"/>
  <path id="Path_563" data-name="Path 563" d="M76.554,35.325H68.045V22.4a1.437,1.437,0,0,1,1.319-1.529H70.71c-.276-.419-.868-.687-.868-1.835,0-1.416,2.459-2.212,2.459-2.212h0s2.459.8,2.459,2.212c0,1.148-.59,1.416-.866,1.835h1.344A1.434,1.434,0,0,1,76.554,22.4Z" transform="translate(75.306 18.615)" fill="#59c6f2"/>
  <path id="Path_564" data-name="Path 564" d="M76.554,23.951H68.045V14.723a1.438,1.438,0,0,1,1.319-1.529H70.71c-.276-.417-.868-.689-.868-1.837,0-1.414,2.459-2.21,2.459-2.21h0s2.459.8,2.459,2.21c0,1.148-.59,1.42-.866,1.837h1.344a1.435,1.435,0,0,1,1.317,1.529Z" transform="translate(75.306 10.123)" fill="#59c6f2"/>
  <path id="Path_565" data-name="Path 565" d="M81.4,35.325H72.892V22.4a1.434,1.434,0,0,1,1.317-1.529h1.348c-.28-.419-.87-.687-.87-1.835,0-1.416,2.459-2.212,2.459-2.212h0s2.456.8,2.456,2.212c0,1.148-.59,1.416-.868,1.835h1.348A1.437,1.437,0,0,1,81.4,22.4Z" transform="translate(80.67 18.615)" fill="#59c6f2"/>
  <path id="Path_566" data-name="Path 566" d="M81.4,23.951H72.892V14.723a1.435,1.435,0,0,1,1.317-1.529h1.348c-.28-.417-.87-.689-.87-1.837,0-1.414,2.459-2.21,2.459-2.21l0,0v0s2.456.8,2.456,2.21c0,1.148-.59,1.42-.868,1.837h1.348A1.438,1.438,0,0,1,81.4,14.723Z" transform="translate(80.67 10.123)" fill="#59c6f2"/>
  <path id="Path_567" data-name="Path 567" d="M81.865,8.862h0A1.7,1.7,0,0,1,80.2,10.585a1.514,1.514,0,0,1-.392-.051,2.555,2.555,0,0,1,.362,1.426c0,1.835-2.869,2.688-2.869,2.688s-2.867-.853-2.867-2.688a2.52,2.52,0,0,1,.362-1.426,1.547,1.547,0,0,1-.4.051,1.706,1.706,0,0,1-1.656-1.723h0l0-.019,0-.017h0A1.7,1.7,0,0,1,74.405,7.1a1.547,1.547,0,0,1,.4.051,2.513,2.513,0,0,1-.362-1.428c0-1.835,2.867-2.686,2.867-2.686s2.869.851,2.869,2.686a2.547,2.547,0,0,1-.362,1.428A1.514,1.514,0,0,1,80.2,7.1a1.7,1.7,0,0,1,1.656,1.723h0l0,.017Z" transform="translate(80.507 3.363)" fill="#fd0"/>
  <path id="Path_568" data-name="Path 568" d="M86.246,23.951H77.737V14.723a1.438,1.438,0,0,1,1.319-1.529H80.4c-.28-.417-.87-.689-.87-1.837,0-1.414,2.459-2.21,2.459-2.21l0,0v0s2.459.8,2.459,2.21c0,1.148-.592,1.42-.87,1.837h1.346a1.435,1.435,0,0,1,1.317,1.529Z" transform="translate(86.032 10.123)" fill="#59c6f2"/>
  <path id="Path_569" data-name="Path 569" d="M86.714,8.86h0a1.712,1.712,0,0,1-1.656,1.727,1.664,1.664,0,0,1-.4-.053,2.515,2.515,0,0,1,.362,1.426c0,1.835-2.865,2.686-2.865,2.686s-2.869-.851-2.869-2.686a2.551,2.551,0,0,1,.36-1.426,1.612,1.612,0,0,1-.392.053A1.708,1.708,0,0,1,77.6,8.86h0l0-.017,0-.015h0a1.645,1.645,0,0,1,2.048-1.677,2.546,2.546,0,0,1-.36-1.426c0-1.835,2.869-2.686,2.869-2.686s2.865.851,2.865,2.686a2.51,2.51,0,0,1-.362,1.426,1.777,1.777,0,0,1,.4-.051A1.711,1.711,0,0,1,86.71,8.828h0l0,.015Z" transform="translate(85.872 3.363)" fill="#59c6f2"/>
  <path id="Path_570" data-name="Path 570" d="M91.093,35.325H82.584V22.4A1.434,1.434,0,0,1,83.9,20.867h1.348c-.278-.419-.872-.687-.872-1.835,0-1.416,2.461-2.212,2.461-2.212h0s2.461.8,2.461,2.212c0,1.148-.594,1.416-.872,1.835h1.35A1.435,1.435,0,0,1,91.093,22.4Z" transform="translate(91.396 18.615)" fill="#59c6f2"/>
  <path id="Path_571" data-name="Path 571" d="M91.093,23.951H82.584V14.723A1.435,1.435,0,0,1,83.9,13.194h1.348c-.278-.417-.872-.689-.872-1.837,0-1.414,2.461-2.21,2.461-2.21v0s2.461.8,2.461,2.21c0,1.148-.594,1.42-.872,1.837h1.35a1.437,1.437,0,0,1,1.317,1.529Z" transform="translate(91.396 10.123)" fill="#59c6f2"/>
  <path id="Path_572" data-name="Path 572" d="M88.287,9.071a3.288,3.288,0,0,1-1.888.343,2.314,2.314,0,0,1-1.2-.925,1.836,1.836,0,0,1,.061,1.045,1.459,1.459,0,0,1-.788.959l-1.885.931V9.3a1.885,1.885,0,0,1,.291-1.079,1.1,1.1,0,0,1,.754-.493,1.1,1.1,0,0,1-.754-.491,1.889,1.889,0,0,1-.291-1.079V4.042l1.885.929a1.474,1.474,0,0,1,.788.961A1.845,1.845,0,0,1,85.2,6.979a2.3,2.3,0,0,1,1.2-.927,3.322,3.322,0,0,1,1.888.343c.2.076,1.776.761,3.112,1.338C90.063,8.31,88.483,9,88.287,9.071Z" transform="translate(91.396 4.473)" fill="#59c6f2"/>
  <path id="Path_573" data-name="Path 573" d="M268,48.716a4.181,4.181,0,0,0-2.157-.638,2.178,2.178,0,0,0-2.427,2.037c0,1.264,1.062,1.8,1.989,2.242.994.472,1.685.828,1.685,1.553,0,.64-.691,1.011-1.281,1.011a4.764,4.764,0,0,1-2.444-.857v1.192a4.984,4.984,0,0,0,2.427.691,2.114,2.114,0,0,0,1.112-4.062c-1.8-.944-2.328-1.2-2.328-1.8,0-.522.508-.978,1.283-.978a4.108,4.108,0,0,1,2.14.775Zm-8.147,6.055h-1.485c-1.786,0-3-.961-3-2.785a2.649,2.649,0,0,1,2.747-2.882,3.429,3.429,0,0,1,1.738.491Zm1.161,1.024V44.3h-1.161v4.23a4.612,4.612,0,0,0-1.923-.455,3.67,3.67,0,0,0-3.756,3.942c0,2.429,1.532,3.775,4.178,3.775Zm-15.158-7.565v7.565h1.161V50.435a2.413,2.413,0,0,1,2.107-1.331c1.334,0,1.822.994,1.822,2.275v4.416H252.1V51.277c0-1.955-1.009-3.2-2.713-3.2a2.877,2.877,0,0,0-2.376,1.3V48.229Zm-3.246-3.084a.757.757,0,1,0,.758.756.755.755,0,0,0-.758-.756m.573,3.084h-1.161v7.565h1.161Zm-13.609,0h-1.161v7.565h1.161V50.4a2.492,2.492,0,0,1,2.022-1.3c1.2,0,1.738.792,1.738,2.191v4.5h1.161V50.468a2.583,2.583,0,0,1,2.124-1.365c1.367,0,1.637,1.3,1.637,2.157v4.534h1.161V51.26c0-1.3-.472-3.183-2.6-3.183a3.067,3.067,0,0,0-2.579,1.582,2.5,2.5,0,0,0-2.311-1.582,2.924,2.924,0,0,0-2.357,1.312Zm-6.984,9.219c0,.708-.826,1.3-2.311,1.3-.742,0-2.393-.1-2.393-1.3,0-.508.388-1.266,2.225-1.266,2.025,0,2.48.777,2.48,1.266m-.657-6.524a1.642,1.642,0,0,1-1.738,1.685,1.694,1.694,0,1,1,1.738-1.685m1.768-2.694h-2.88c-2.85,0-3.438,1.5-3.438,2.68a2.525,2.525,0,0,0,1.835,2.442c-.691.253-1.38.489-1.38,1.18,0,.253.27.742,1.009,1.011-1.683.3-2.054,1.264-2.054,1.923,0,1.18,1.161,2.206,3.453,2.206,1.839,0,3.436-.725,3.436-2.271,0-1.235-.822-1.926-3.1-2.212-1.232-.152-1.654-.335-1.654-.773,0-.474.556-.626,1.839-.929a2.564,2.564,0,0,0,2.223-2.477,2.433,2.433,0,0,0-.925-1.854H223.7Zm-14.745,0v7.565h1.161V50.435A2.414,2.414,0,0,1,212.22,49.1c1.331,0,1.82.994,1.82,2.275v4.416H215.2V51.277c0-1.955-1.009-3.2-2.711-3.2a2.878,2.878,0,0,0-2.378,1.3V48.229Zm-3.16-3.084a.757.757,0,1,0,.756.756.753.753,0,0,0-.756-.756m.571,3.084H205.2v7.565h1.161Zm-8.383,0v7.565h1.161v-3.27a4.808,4.808,0,0,1,.27-1.82,2.3,2.3,0,0,1,1.854-1.433,2.415,2.415,0,0,1,1.466.708l.624-1.009a3.35,3.35,0,0,0-1.8-.893,2.259,2.259,0,0,0-1.146.419,4.816,4.816,0,0,0-1.264,1.4V48.229Zm-3.211-3.084a.757.757,0,1,0,.756.756.753.753,0,0,0-.756-.756m.571,3.084h-1.161v7.565h1.161Zm-8.958,1.026h1.485c1.787,0,3,.961,3,2.781a2.651,2.651,0,0,1-2.747,2.884,3.447,3.447,0,0,1-1.738-.489Zm-1.161-1.026v11.29h1.161V55.491a4.646,4.646,0,0,0,1.923.455A3.671,3.671,0,0,0,192.061,52c0-2.427-1.532-3.773-4.178-3.773Zm-2.553.487a4.181,4.181,0,0,0-2.157-.638,2.178,2.178,0,0,0-2.427,2.037c0,1.264,1.06,1.8,1.989,2.242.994.472,1.685.828,1.685,1.553,0,.64-.691,1.011-1.281,1.011a4.775,4.775,0,0,1-2.446-.857v1.192a5,5,0,0,0,2.429.691,2.114,2.114,0,0,0,1.112-4.062c-1.8-.944-2.328-1.2-2.328-1.8,0-.522.508-.978,1.283-.978a4.108,4.108,0,0,1,2.14.775ZM169.6,48.229v7.565h1.161V50.435a2.413,2.413,0,0,1,2.107-1.331c1.331,0,1.822.994,1.822,2.275v4.416h1.161V51.277c0-1.955-1.011-3.2-2.713-3.2a2.877,2.877,0,0,0-2.376,1.3V48.229Zm-3.162-3.084a.757.757,0,1,0,.758.756.752.752,0,0,0-.758-.756m.573,3.084H165.85v7.565h1.161Zm-6.958,9.6a2.388,2.388,0,0,0,1.666-2.343c0-.756-.337-1.363-.98-1.363a.914.914,0,0,0-.838.975.948.948,0,0,0,.739.944,1.723,1.723,0,0,1-.588,1.517Zm-2.539-9.118a4.174,4.174,0,0,0-2.157-.638,2.176,2.176,0,0,0-2.425,2.037c0,1.264,1.06,1.8,1.987,2.242.992.472,1.687.828,1.687,1.553,0,.64-.7,1.011-1.283,1.011a4.759,4.759,0,0,1-2.442-.857v1.192a4.969,4.969,0,0,0,2.425.691,2.114,2.114,0,0,0,1.114-4.062c-1.805-.944-2.328-1.2-2.328-1.8,0-.522.508-.978,1.281-.978a4.1,4.1,0,0,1,2.14.775Zm-5.89-.487H150.41L148.117,53.6l-2.126-5.374h-.756L143.078,53.6l-2.29-5.374h-1.2l3.3,7.717h.438l2.275-5.713,2.275,5.713h.438Zm-18.682,3.017a2.311,2.311,0,0,1,2.242-2.143,2.124,2.124,0,0,1,2.109,2.143Zm5.545.571a3.45,3.45,0,0,0-3.337-3.739c-1.719,0-3.47,1.279-3.47,3.908a3.685,3.685,0,0,0,3.773,3.961,4.707,4.707,0,0,0,2.916-.908V53.856a4.239,4.239,0,0,1-2.781,1.064,2.652,2.652,0,0,1-2.713-2.834h5.612Zm-9.463-6.672a.757.757,0,1,0,.758.756.751.751,0,0,0-.758-.756m.573,3.084h-1.161v7.565H129.6Zm-2.874,0h-1.213l-2.341,5.509-2.461-5.509h-1.23l3.438,7.717h.5ZM114.8,57.448c0,.708-.826,1.3-2.309,1.3-.744,0-2.4-.1-2.4-1.3,0-.508.388-1.266,2.227-1.266,2.022,0,2.477.777,2.477,1.266m-.657-6.524a1.641,1.641,0,0,1-1.736,1.685,1.694,1.694,0,1,1,1.736-1.685m1.768-2.694h-2.88c-2.848,0-3.438,1.5-3.438,2.68a2.525,2.525,0,0,0,1.835,2.442c-.691.253-1.38.489-1.38,1.18,0,.253.27.742,1.009,1.011-1.683.3-2.054,1.264-2.054,1.923,0,1.18,1.161,2.206,3.455,2.206,1.837,0,3.436-.725,3.436-2.271,0-1.235-.824-1.926-3.1-2.212-1.232-.152-1.654-.335-1.654-.773,0-.474.556-.626,1.839-.929a2.564,2.564,0,0,0,2.223-2.477,2.434,2.434,0,0,0-.925-1.854h1.633Zm-14.753,0v7.565h1.161V50.435a2.416,2.416,0,0,1,2.109-1.331c1.331,0,1.82.994,1.82,2.275v4.416h1.161V51.277c0-1.955-1.009-3.2-2.711-3.2a2.88,2.88,0,0,0-2.378,1.3V48.229ZM98,45.145a.757.757,0,1,0,.756.756A.753.753,0,0,0,98,45.145m.571,3.084H97.407v7.565h1.161Zm-4.287,9.219c0,.708-.826,1.3-2.309,1.3-.742,0-2.4-.1-2.4-1.3,0-.508.388-1.266,2.227-1.266,2.022,0,2.477.777,2.477,1.266m-.657-6.524a1.641,1.641,0,0,1-1.736,1.685,1.694,1.694,0,1,1,1.736-1.685m1.768-2.694h-2.88c-2.848,0-3.438,1.5-3.438,2.68A2.525,2.525,0,0,0,90.91,53.35c-.691.253-1.382.489-1.382,1.18,0,.253.27.742,1.009,1.011-1.683.3-2.054,1.264-2.054,1.923,0,1.18,1.161,2.206,3.455,2.206,1.837,0,3.436-.725,3.436-2.271,0-1.235-.824-1.926-3.1-2.212-1.23-.152-1.654-.335-1.654-.773,0-.474.558-.626,1.839-.929a2.564,2.564,0,0,0,2.223-2.477,2.433,2.433,0,0,0-.925-1.854h1.633Zm-14.745,0v7.565h1.161V50.435A2.418,2.418,0,0,1,83.916,49.1c1.331,0,1.82.994,1.82,2.275v4.416H86.9V51.277c0-1.955-1.009-3.2-2.711-3.2a2.883,2.883,0,0,0-2.378,1.3V48.229Zm-4.068,6.063a2.574,2.574,0,0,1-1.7.813,1.2,1.2,0,0,1-1.281-1.167c0-.948,1.045-1.591,2.985-1.947Zm2.341.171a2.177,2.177,0,0,1-.978.541c-.169,0-.2-.084-.2-.4V50.435a2.268,2.268,0,0,0-2.562-2.357A3.8,3.8,0,0,0,72.716,49v1.2a3.416,3.416,0,0,1,2.36-1.1c1.418,0,1.5.963,1.5,1.452v.676c-3.137.558-4.146,1.557-4.146,2.791a1.914,1.914,0,0,0,1.953,1.923,3.37,3.37,0,0,0,2.21-.857c.067.352.2.857.824.857.2,0,.556-.017,1.5-.691ZM64.081,44.3V55.794h1.161V50.435A2.413,2.413,0,0,1,67.348,49.1c1.334,0,1.822.994,1.822,2.275v4.416h1.161V51.277c0-1.955-1.009-3.2-2.713-3.2a2.877,2.877,0,0,0-2.376,1.3V44.3ZM61.8,48.532a5.147,5.147,0,0,0-2.073-.455A3.676,3.676,0,0,0,56,52.069a3.6,3.6,0,0,0,3.807,3.876,5.983,5.983,0,0,0,2.14-.421V54.38a4.914,4.914,0,0,1-2.022.489,2.627,2.627,0,0,1-2.73-2.834,2.659,2.659,0,0,1,2.528-2.882,3.968,3.968,0,0,1,2.073.624ZM51.169,52.794l2.562,3H55.2l-3.3-3.876,3.067-3.689H53.545l-2.376,2.848-2.425-2.848H47.278l3.168,3.723-3.168,3.843h1.4ZM40.627,51.246A2.312,2.312,0,0,1,42.871,49.1a2.124,2.124,0,0,1,2.107,2.143Zm5.545.571a3.45,3.45,0,0,0-3.335-3.739c-1.721,0-3.472,1.279-3.472,3.908a3.686,3.686,0,0,0,3.775,3.961,4.7,4.7,0,0,0,2.914-.908V53.856a4.237,4.237,0,0,1-2.779,1.064,2.653,2.653,0,0,1-2.716-2.834h5.612Z" transform="translate(43.565 49.029)" fill="#00b1eb"/>
</svg>
