<svg xmlns="http://www.w3.org/2000/svg" width="76.478" height="84" viewBox="0 0 76.478 84">
  <path id="find_in_page" data-name="find in page" d="M22.567,49.97a11.246,11.246,0,0,1,0-16.119,11.246,11.246,0,0,1,16.119,0,11.246,11.246,0,0,1,0,16.119,11.246,11.246,0,0,1-16.119,0ZM61.254,67.164,46.567,52.478A19.232,19.232,0,0,0,49.791,41.91a18.153,18.153,0,0,0-5.642-13.433,18.6,18.6,0,0,0-13.522-5.552A18.6,18.6,0,0,0,17.1,28.478,18.153,18.153,0,0,0,11.463,41.91,18.446,18.446,0,0,0,17.1,55.433a18.446,18.446,0,0,0,13.522,5.642,19.232,19.232,0,0,0,10.567-3.224L58.03,74.866A7.421,7.421,0,0,1,53.552,76.3H7.7A7.524,7.524,0,0,1,2.328,74.06,7.093,7.093,0,0,1,0,68.776L.179,7.522A7.226,7.226,0,0,1,2.418,2.239,7.226,7.226,0,0,1,7.7,0H38.328L61.254,22.925ZM76.478,84" fill="#fff" opacity="0.602"/>
</svg>
