<svg xmlns="http://www.w3.org/2000/svg" width="90" height="73.078" viewBox="0 0 90 73.078">
  <path id="newspaper" d="M0,63.984V9.094A8.756,8.756,0,0,1,2.672,2.672,8.756,8.756,0,0,1,9.094,0H62.766a8.834,8.834,0,0,1,6.445,2.672,8.718,8.718,0,0,1,2.7,6.422v6.141h9A9.123,9.123,0,0,1,90,24.328V63.984a9.122,9.122,0,0,1-9.094,9.094H9.094a8.756,8.756,0,0,1-6.422-2.672A8.756,8.756,0,0,1,0,63.984Zm8.391-4.125a4.683,4.683,0,0,0,1.383,3.281,4.737,4.737,0,0,0,3.258,1.453H62.766a.642.642,0,0,0,.7-.609V13.312a4.619,4.619,0,0,0-1.43-3.422,4.735,4.735,0,0,0-3.445-1.406H13.266a4.843,4.843,0,0,0-4.875,4.734Zm8.344-3.7a4.1,4.1,0,0,1-1.266-3,4.023,4.023,0,0,1,1.266-2.977,4.138,4.138,0,0,1,3-1.242h12.75a4.219,4.219,0,0,1,0,8.438H19.734A4.179,4.179,0,0,1,16.734,56.156Zm0-16.594a4.266,4.266,0,0,1,3-7.266H52.172a4.06,4.06,0,0,1,2.977,1.242,4.115,4.115,0,0,1,1.242,3.023,4.241,4.241,0,0,1-4.219,4.219H19.734A4.179,4.179,0,0,1,16.734,39.562Zm0-16.641a4.219,4.219,0,0,1,3-7.219H52.172a4.1,4.1,0,0,1,2.977,1.219,4.038,4.038,0,0,1,1.242,3,4.138,4.138,0,0,1-1.242,3,4.023,4.023,0,0,1-2.977,1.266H19.734A4.1,4.1,0,0,1,16.734,22.922ZM71.906,59.906a4.691,4.691,0,0,0,1.336,3.258,4.611,4.611,0,0,0,3.211,1.43h.516a4.725,4.725,0,0,0,4.547-4.781V24.328q0-.7-.609-.7h-9ZM90,70.828" fill="#fff" opacity="0.6"/>
</svg>
