<svg xmlns="http://www.w3.org/2000/svg" width="94.286" height="66" viewBox="0 0 94.286 66">
  <path id="users" d="M20.772,25.487a9.061,9.061,0,0,1-6.629,2.8,9.061,9.061,0,0,1-6.629-2.8,9.25,9.25,0,0,1,0-13.259,9.061,9.061,0,0,1,6.629-2.8,9.061,9.061,0,0,1,6.629,2.8,9.25,9.25,0,0,1,0,13.259Zm66,0a9.25,9.25,0,0,1-13.259,0,9.25,9.25,0,0,1,0-13.259,9.25,9.25,0,0,1,13.259,0,9.25,9.25,0,0,1,0,13.259ZM84.857,33a9.56,9.56,0,0,1,9.429,9.429v4.714a4.78,4.78,0,0,1-4.714,4.714H79.848a21.433,21.433,0,0,0-1.915-6.482A20.6,20.6,0,0,0,74.1,39.85,22.359,22.359,0,0,0,68.8,35.8,9.061,9.061,0,0,1,75.429,33ZM58.781,28.138a16.362,16.362,0,0,1-23.277,0A15.879,15.879,0,0,1,30.643,16.5,15.879,15.879,0,0,1,35.5,4.862a16.362,16.362,0,0,1,23.277,0A15.879,15.879,0,0,1,63.643,16.5,15.879,15.879,0,0,1,58.781,28.138Zm-.295,9.576A16.851,16.851,0,0,1,75.429,54.656v4.272A7.042,7.042,0,0,1,68.357,66H25.929a7.042,7.042,0,0,1-7.071-7.071V54.656A16.851,16.851,0,0,1,35.8,37.714h1.326a22.467,22.467,0,0,0,20.036,0Zm-33-1.915a20.682,20.682,0,0,0-7.366,6.629,21.823,21.823,0,0,0-3.683,9.429H4.714a4.531,4.531,0,0,1-3.315-1.4A4.53,4.53,0,0,1,0,47.143V42.429A9.061,9.061,0,0,1,2.8,35.8,9.061,9.061,0,0,1,9.429,33h9.429A9.061,9.061,0,0,1,25.487,35.8Zm68.8,25.487" fill="#fff" opacity="0.6"/>
</svg>
