<svg xmlns="http://www.w3.org/2000/svg" width="76" height="76" viewBox="0 0 76 76">
  <path id="md_locate" data-name="md locate" d="M28.33,28.5A13.21,13.21,0,0,1,38,24.429,13.611,13.611,0,0,1,51.571,38,13.611,13.611,0,0,1,38,51.571,13.611,13.611,0,0,1,24.429,38,12.929,12.929,0,0,1,28.33,28.5ZM70.4,34.438H76v7.125H70.4a31.462,31.462,0,0,1-9.33,19.509A31.462,31.462,0,0,1,41.563,70.4V76H34.438V70.4a31.462,31.462,0,0,1-19.509-9.33A31.462,31.462,0,0,1,5.6,41.563H0V34.438H5.6a31.462,31.462,0,0,1,9.33-19.509A31.462,31.462,0,0,1,34.438,5.6V0h7.125V5.6a31.462,31.462,0,0,1,19.509,9.33A31.462,31.462,0,0,1,70.4,34.438ZM20.018,55.982A24.8,24.8,0,0,0,38,63.277,24.371,24.371,0,0,0,55.9,55.9,24.371,24.371,0,0,0,63.277,38,24.371,24.371,0,0,0,55.9,20.1,24.371,24.371,0,0,0,38,12.723,24.371,24.371,0,0,0,20.1,20.1,24.371,24.371,0,0,0,12.723,38,24.8,24.8,0,0,0,20.018,55.982ZM76,70.571" fill="#fff" opacity="0.602"/>
</svg>
