<svg id="Group_261" data-name="Group 261" xmlns="http://www.w3.org/2000/svg" width="42.036" height="42.036" viewBox="0 0 42.036 42.036">
  <rect id="SoundCloud" width="42.036" height="42.036" fill="#fff"/>
  <path id="SoundCloud-2" data-name="SoundCloud" d="M923.727,1490.881a3.237,3.237,0,0,0,1.167,2.484V1488.4a3.232,3.232,0,0,0-1.167,2.483m2.4-3.136v6.272a3.42,3.42,0,0,0,.916.126h.319v-6.508c-.107-.009-.213-.015-.321-.015a3.4,3.4,0,0,0-.914.125m2.726.407c-.084-.054-.168-.1-.258-.149v6.14h1.233v-8.213a5.07,5.07,0,0,0-.976,2.222m2.21-3.377v9.367H932.3v-9.974a5.248,5.248,0,0,0-1.234.607m2.467-.862v10.229h1.234v-10.193a5.393,5.393,0,0,0-.778-.057c-.155,0-.307.007-.456.02m3.148.721a5.268,5.268,0,0,0-1.3-.553v10.061h1.85v-10.251a6.312,6.312,0,0,0-.553.742m1.171-1.361v10.869H949.57v-.014c2.468-.158,3.581-1.688,3.581-3.558a3.489,3.489,0,0,0-3.5-3.572,3.358,3.358,0,0,0-1.388.3,6.311,6.311,0,0,0-10.416-4.024" transform="translate(-917.421 -1466.419)" fill="#7a8086"/>
</svg>
