<svg id="Group_263" data-name="Group 263" xmlns="http://www.w3.org/2000/svg" width="42.036" height="42.036" viewBox="0 0 42.036 42.036">
  <rect id="Twitter" width="42.036" height="42.036" transform="translate(0)" fill="#fff"/>
  <path id="Twitter-2" data-name="Twitter" d="M233.849,988.677a12.088,12.088,0,0,1-3.468.95,6.053,6.053,0,0,0,2.655-3.34,12.084,12.084,0,0,1-3.834,1.465,6.042,6.042,0,0,0-10.287,5.506,17.134,17.134,0,0,1-12.443-6.307,6.042,6.042,0,0,0,1.868,8.059,6.013,6.013,0,0,1-2.734-.755c0,.025,0,.05,0,.076a6.039,6.039,0,0,0,4.842,5.919,6.046,6.046,0,0,1-2.726.1,6.042,6.042,0,0,0,5.639,4.193,12.111,12.111,0,0,1-7.5,2.584,12.24,12.24,0,0,1-1.44-.084,17.083,17.083,0,0,0,9.254,2.713c11.1,0,17.176-9.2,17.176-17.176q0-.392-.018-.781A12.278,12.278,0,0,0,233.849,988.677Z" transform="translate(-198.119 -976.784)" fill="#7a8086"/>
</svg>
