<svg xmlns="http://www.w3.org/2000/svg" width="20.156" height="20.156" viewBox="0 0 20.156 20.156">
  <g id="Group_294" data-name="Group 294" transform="translate(-1275 -25)">
    <rect id="LinkedIn" width="20.156" height="20.156" transform="translate(1275 25)"/>
    <path id="Instagram" d="M816.773,985.471h-1.229a4.341,4.341,0,1,1-8.4,0h-1.228v5.97a.543.543,0,0,0,.543.542h9.767a.543.543,0,0,0,.544-.542Zm0-3.8a.543.543,0,0,0-.544-.543H814.6a.543.543,0,0,0-.543.543V983.3a.543.543,0,0,0,.543.543h1.627a.543.543,0,0,0,.544-.543Zm-5.427,2.171a2.713,2.713,0,1,0,2.714,2.713,2.713,2.713,0,0,0-2.714-2.713m5.427,9.768H805.919a1.628,1.628,0,0,1-1.628-1.629V981.13a1.628,1.628,0,0,1,1.628-1.628h10.854a1.628,1.628,0,0,1,1.628,1.628v10.853a1.628,1.628,0,0,1-1.628,1.629" transform="translate(473.706 -951.436)" fill="#fff" fill-rule="evenodd"/>
  </g>
</svg>
