<svg id="Group_262" data-name="Group 262" xmlns="http://www.w3.org/2000/svg" width="42.036" height="42.036" viewBox="0 0 42.036 42.036">
  <rect id="Vimeo" width="42.036" height="42.036" transform="translate(0)" fill="#fff"/>
  <path id="Vimeo-2" data-name="Vimeo" d="M349.547,1104.961q-6.136-.2-8.308,6.886a5.7,5.7,0,0,1,2.179-.463q2.238,0,1.976,2.516a11.44,11.44,0,0,1-1.976,4.437q-1.851,2.917-2.768,2.916-1.192,0-2.18-4.5-.332-1.326-1.185-6.757-.8-5.032-4.223-4.7-1.45.133-4.348,2.649-2.116,1.921-4.291,3.842l1.384,1.786a9.152,9.152,0,0,1,2.308-1.39q1.518,0,2.838,4.765,1.184,4.376,2.377,8.743c1.181,3.179,2.636,4.769,4.348,4.769q4.153,0,10.157-7.814,5.8-7.481,6-11.79Q354.1,1105.1,349.547,1104.961Z" transform="translate(-318.118 -1096.689)" fill="#7a8086"/>
</svg>
