<svg id="Group_286" data-name="Group 286" xmlns="http://www.w3.org/2000/svg" width="20.156" height="20.156" viewBox="0 0 20.156 20.156">
  <rect id="Twitter" width="20.156" height="20.156" transform="translate(0)"/>
  <path id="Twitter-2" data-name="Twitter" d="M218.533,987.2a5.8,5.8,0,0,1-1.663.456,2.9,2.9,0,0,0,1.273-1.6,5.8,5.8,0,0,1-1.838.7,2.9,2.9,0,0,0-4.933,2.64,8.215,8.215,0,0,1-5.966-3.024,2.9,2.9,0,0,0,.9,3.865,2.885,2.885,0,0,1-1.311-.362c0,.012,0,.024,0,.036a2.9,2.9,0,0,0,2.322,2.838,2.9,2.9,0,0,1-1.307.05,2.9,2.9,0,0,0,2.7,2.01,5.845,5.845,0,0,1-4.285,1.2,8.232,8.232,0,0,0,12.673-6.935q0-.188-.008-.374A5.888,5.888,0,0,0,218.533,987.2Z" transform="translate(-201.401 -981.501)" fill="#fff"/>
</svg>
