<svg id="Group_260" data-name="Group 260" xmlns="http://www.w3.org/2000/svg" width="42.036" height="42.036" viewBox="0 0 42.036 42.036">
  <rect id="LinkedIn" width="42.036" height="42.036" transform="translate(0)" fill="#fff"/>
  <path id="LinkedIn-2" data-name="LinkedIn" d="M713.1,998.083v10.878h-6.307v-10.15c0-2.55-.913-4.29-3.2-4.29a3.452,3.452,0,0,0-3.236,2.307,4.315,4.315,0,0,0-.209,1.538v10.595h-6.308s.085-17.191,0-18.972h6.308v2.689c-.013.02-.029.042-.042.062h.042v-.062a6.263,6.263,0,0,1,5.685-3.135C709.99,989.545,713.1,992.256,713.1,998.083Zm-25.855-17.239a3.287,3.287,0,1,0-.084,6.557h.042a3.289,3.289,0,1,0,.042-6.557Zm-3.2,28.117h6.307V989.99H684.05Z" transform="translate(-677.685 -973.886)" fill="#7a8086"/>
</svg>
