<svg id="Layer_1" data-name="Layer 1" xmlns="http://www.w3.org/2000/svg" viewBox="0 0 278.9 186.87"><title>BHCC_logo_wo</title><path d="M228.86,389.42a5.47,5.47,0,0,1,.66,1.71,33,33,0,0,0,3.3,7.87c4,7.53,17.23,4.35,17.65,17.59.18,5.23-1.73,8-5.17,10.69l.45.77-.56.86H207.64l-.7-1,.53-.65c-3.47-2.7-5.41-5.45-5.24-10.7.43-13.24,13.68-10.06,17.65-17.59a33,33,0,0,0,3.31-7.87c.43-1.63,1.2-3,3.23-2.94A2.68,2.68,0,0,1,228.86,389.42Zm70-41.17c-1.54-.45-2.9-1.62-2.9-2.9.09-2.09,1.41-5.46,2.9-5.24,1.36-.09,3,3.23,3.07,5.32C302,346.71,300.49,347.89,298.9,348.25Zm.09-18.88c.13.38.27.64.42,1.06s.34.5.3.85a.92.92,0,0,1-.72.86.93.93,0,0,1-.73-.86c0-.35.18-.52.3-.85S298.86,329.75,299,329.37Zm0,26a1.6,1.6,0,0,1-1.34-1c-.06-.19-.26-.22-.53-.25v-.34h.56a1.37,1.37,0,0,1,2.67,0h.56v.34c-.27,0-.47.06-.53.25A1.62,1.62,0,0,1,299,355.4Zm-.08-3c-.87,0-1.34-.76-1.6-1.55-.12-.35-1.11-.18-1.6-.23V350h1.42a2,2,0,0,1,3.68.09l1.51,0v.62c-.49.05-1.53-.18-1.64.16C300.38,351.64,299.8,352.49,298.88,352.44Zm-17,44.78c.37,1.22,3.21,3.39,3.13,6.88-.08,3.29-2.59,5.52-3.33,6.74-.77-1.22-3.09-3.24-3.17-6.53C278.46,400.82,281.59,398.44,281.91,397.22Zm41.67.15c-.24,1.18-3.3,3.34-3.26,6.75.08,3.16,2.57,5.34,3.14,6.52.52-1.18,2.89-3.55,2.93-6.72C326.47,400.51,323.82,398.55,323.58,397.37Zm6.41.32c-.23,1.13-2.5,3.15-2.46,6.46.07,3,1.82,5.16,2.35,6.29.48-1.13,2.27-3.27,2.31-6.29C332.26,400.84,330.21,398.82,330,397.69Zm-40.32.78c-1.36,1.62-2.85,3.19-2.8,5.51s1.44,4.17,2.85,6c1.49-1.84,3.18-3.5,3.25-6,0-2.66-1.58-4.06-2.9-6Zm26.3-1.22c-.36,1.21-4.12,3.57-4,7.06.08,3.29,3.1,5.31,3.83,6.53.77-1.22,3.33-3.24,3.41-6.53C319.26,400.82,316.29,398.46,316,397.25Zm-8.93-.13c-.37,1.22-3.92,3.31-3.88,6.8.08,3.21,2.94,5.54,3.67,6.72.77-1.18,3.92-3.32,4-6.52C310.88,400.63,307.36,398.34,307,397.12Zm-8.86-.32c-.4,1.22-4.18,3.41-4.09,6.94.08,3.29,3,5.56,3.89,6.78.85-1.22,3.82-3.49,3.9-6.78C302,400.21,298.55,398,298.18,396.8Zm-23.93.57c.25,1.18,3.19,3.44,3.14,6.85-.08,3.16-2.45,5.24-3,6.42-.52-1.18-2.61-3.55-2.65-6.72C271.64,400.51,274,398.55,274.25,397.37Zm25-63.17a2.69,2.69,0,0,0,1.66,2.05h.61l.05.37a1,1,0,0,0-.8.52c-.41.9-.57,2.61-1.81,2.61s-1.41-1.71-1.81-2.61a1,1,0,0,0-.81-.52l.06-.37H297a2.63,2.63,0,0,0,.75-.45,2.37,2.37,0,0,0,.94-1.58,1,1,0,0,1-.64-.63c0-.11-.18-.13-.36-.15v-.21h.37a.89.89,0,0,1,.89-.68.88.88,0,0,1,.88.68h.37v.21c-.18,0-.31,0-.35.15A1.13,1.13,0,0,1,299.28,334.2ZM299,428.92H267.32l-.89-.87.81-.71v-6.46h.8a1,1,0,0,1,1,1.07,1.14,1.14,0,0,1-.82.95l2,3.51v-4.08h1v-.17c-3.78-5.51-6.69-10.29-6.46-17.94.49-14.83,7.2-22.58,19.29-28.76,1.33-.68,4.05-1.94,5.07-3,4-4.26,6.49-6.41,6.89-12.89.1-1.83,1.13-3.65,3-3.65s2.85,1.82,3,3.65c.39,6.48,2.85,8.63,6.88,12.89,1,1.07,3.75,2.33,5.07,3,12.09,6.18,18.8,13.93,19.3,28.76.22,7.65-2.69,12.43-6.47,17.94v.17h1v4.08l2-3.51a1.11,1.11,0,0,1-.82-.95,1,1,0,0,1,1-1.07h.8v6.46l.81.71-.88.87Zm64.65-1.71a25.83,25.83,0,0,1-1.37-3.2c-1-3-1.48-4.9-1.06-8,.55-4.06,3.06-5.63,4.87-9.3,1.72-3.51,3.1-5.35,4.22-9.09a30.88,30.88,0,0,0,1.46-8.46,1.94,1.94,0,0,0-1.27.7c-.71.71-1.86,5.58-3.52,8.71a16,16,0,0,1-4.41,5.48c-3.62,3-8,3.91-9.59,6.56a9.52,9.52,0,0,0-1.56,6.84c.47,3.6,2.5,5.32,5.28,7.64a16.93,16.93,0,0,0,3.27,2.15ZM374,389.42a5.45,5.45,0,0,1,.65,1.71A33.44,33.44,0,0,0,378,399c4,7.53,17.22,4.35,17.65,17.59.17,5.23-1.73,8-5.18,10.69l.45.77-.56.86H352.81l-.69-1,.52-.65c-3.47-2.7-5.41-5.45-5.23-10.7.42-13.24,13.67-10.06,17.65-17.59a33,33,0,0,0,3.3-7.87c.43-1.63,1.2-3,3.23-2.94A2.71,2.71,0,0,1,374,389.42ZM207.71,430.79H390.17a1.21,1.21,0,1,1,0,2.41H207.71A1.21,1.21,0,0,1,207.71,430.79Zm52.41-67v6h.57v-6s-.1-.27-.25-.29S260.12,363.76,260.12,363.76Zm-2.7,0v6h1.11v-6a.65.65,0,0,0-.6-.29A.62.62,0,0,0,257.42,363.76Zm-1.1,13.3-.88.1v28.18h.88Zm-1.52-13.24v5.92h1.11v-5.92a.62.62,0,0,0-.57-.28A.6.6,0,0,0,254.8,363.82ZM251,428.91l-.69-.86.55-.78v-6.39h.58a1,1,0,0,1,.21,2l1.42,3.09V415.2l.89-1.06v-2.48c0-1.85,1.4-2.68,1.34-3.31a5.66,5.66,0,0,0-.93-2.2v-29a5.46,5.46,0,0,1,1.74-2.37v-1a3,3,0,0,1-2.35-1.8c-.46-1-1.29-1.12-2.32-1v-1.16h2.32v-6.38h-2.11v-1.05h2.13l.3-.69h.42a4.28,4.28,0,0,1-.18-1.43c.11-1.64,1.37-2.29,2.24-3.44a7.91,7.91,0,0,0,1-1.62,1,1,0,0,1-.78-.69,2.11,2.11,0,0,0-.33,0v-.58h.37a1,1,0,0,1,.91-.61,1,1,0,0,1,.92.61H259v.58a2.11,2.11,0,0,0-.33,0,1,1,0,0,1-.78.69,7.91,7.91,0,0,0,1,1.62c.86,1.15,2.13,1.8,2.23,3.44a4,4,0,0,1-.17,1.43h.42l.29.69h2.14v1.05h-2.11v6.38H264V371c-1-.15-1.86,0-2.33,1a3,3,0,0,1-2.34,1.8v1a5.54,5.54,0,0,1,1.74,2.37v29a5.51,5.51,0,0,0-.93,2.2c-.06.63,1.34,1.46,1.34,3.31v2.48l.89,1.06V426l1.42-3.09a1,1,0,0,1,.2-2h.59v6.39l.55.78-.69.86Zm7.26-77.36c.1.27.29.4.24.75a.8.8,0,1,1-1.43-.45,11.65,11.65,0,0,0,.67-1.69C257.91,350.64,258.1,351.08,258.27,351.55Zm84.25,12.21v6h.56v-6s-.1-.27-.24-.29S342.52,363.76,342.52,363.76Zm-2.71,0v6h1.11v-6a.67.67,0,0,0-1.11,0Zm-1.1,13.3-.88.1v28.18h.89Zm1.55,45a1.07,1.07,0,0,1,.86-1.05s.13,0,.13-.36-.12-.32-.12-.32h-1.84c-.56,0-1.16,1-1.16,1.81a1.3,1.3,0,0,0,.44,1l-1.72,3.89.12.19h2l1.71-4a.58.58,0,0,0,0-.18.27.27,0,0,0-.09-.2A1.07,1.07,0,0,1,340.26,422Zm-3.06-58.22v5.92h1.1v-5.92a.61.61,0,0,0-.56-.28A.59.59,0,0,0,337.2,363.82Zm-3.79,65.09-.7-.86.55-.78v-6.39h.59a1,1,0,0,1,.2,2l1.42,3.09V415.2l.89-1.06v-2.48c0-1.85,1.41-2.68,1.34-3.31a5.51,5.51,0,0,0-.93-2.2v-29a5.62,5.62,0,0,1,1.74-2.37v-1a3,3,0,0,1-2.34-1.8c-.47-1-1.29-1.12-2.32-1v-1.16h2.31v-6.38h-2.11v-1.05h2.14l.29-.69h.42a4,4,0,0,1-.17-1.43c.1-1.64,1.37-2.29,2.23-3.44a7.91,7.91,0,0,0,1-1.62,1,1,0,0,1-.78-.69,2.11,2.11,0,0,0-.33,0v-.58h.38a1,1,0,0,1,.91-.61,1,1,0,0,1,.91.61h.37v.58a2.11,2.11,0,0,0-.33,0,1,1,0,0,1-.78.69,8,8,0,0,0,1,1.62c.86,1.15,2.12,1.8,2.23,3.44a4,4,0,0,1-.18,1.43h.42l.3.69h2.14v1.05h-2.11v6.38h2.31V371c-1-.15-1.85,0-2.32,1a3,3,0,0,1-2.35,1.8v1a5.56,5.56,0,0,1,1.75,2.37v29a5.67,5.67,0,0,0-.94,2.2c-.06.63,1.34,1.46,1.34,3.31v2.48l.89,1.06V426l1.42-3.09a1,1,0,0,1,.21-2H347v6.39l.55.78-.69.86Zm7.26-77.36c.1.27.28.4.24.75a.91.91,0,0,1-.76.84.91.91,0,0,1-.67-1.29,14.49,14.49,0,0,0,.67-1.69C340.31,350.64,340.49,351.08,340.67,351.55ZM372.38,388c-.46.05-.83.06-.83.06s-.37,0-.82-.06a11.05,11.05,0,0,1-1.72-.3l-.17-1a4,4,0,0,1,5.48.06l-.2.92A11.28,11.28,0,0,1,372.38,388Zm-.8-17.19a1.13,1.13,0,1,1-1.14,1.13A1.13,1.13,0,0,1,371.58,370.76Zm2.36,5.26a2.65,2.65,0,0,1-2.32,1.82,2.58,2.58,0,0,1-2.41-1.82c-.11-.32-.47-.37-.93-.42V375h1a2.38,2.38,0,0,1,4.65,0h1v.59C374.41,375.65,374.05,375.7,373.94,376Zm-1.58-7.4c-.15-.4-.28-.65-.4-1l-.38-1.14a18,18,0,0,1-1,2.5,1.14,1.14,0,1,0,2.05.65C372.72,369.14,372.49,369,372.36,368.62Zm-2.26,12.77c0-.58.45-3.4,1.5-3.4s1.43,2.7,1.45,3.31A1.48,1.48,0,1,1,370.1,381.39Zm3.47,2.88c0,.9-1.1,1.35-2,1.35s-2-.45-2-1.35,1.09-1.36,2-1.36S373.57,383.36,373.57,384.27ZM227.21,388c-.46.05-.84.06-.84.06s-.36,0-.82-.06a11.26,11.26,0,0,1-1.72-.3l-.17-1a4.05,4.05,0,0,1,5.49.06l-.21.92A11.16,11.16,0,0,1,227.21,388Zm-.81-17.19a1.13,1.13,0,0,1,0,2.26,1.13,1.13,0,1,1,0-2.26Zm2.37,5.26a2.66,2.66,0,0,1-2.33,1.82A2.59,2.59,0,0,1,224,376c-.1-.32-.46-.37-.93-.42V375h1a2.38,2.38,0,0,1,4.65,0h1v.59C229.23,375.65,228.88,375.7,228.77,376Zm-1.59-7.4c-.14-.4-.28-.65-.4-1l-.38-1.14a16.76,16.76,0,0,1-1,2.5,1.14,1.14,0,1,0,2.05.65C227.55,369.14,227.32,369,227.18,368.62Zm-2.26,12.77c0-.58.46-3.4,1.5-3.4s1.44,2.7,1.46,3.31A1.48,1.48,0,1,1,224.92,381.39Zm3.47,2.88c0,.9-1.09,1.35-2,1.35s-2-.45-2-1.35,1.1-1.36,2-1.36S228.39,383.36,228.39,384.27Zm-10,42.77a22.87,22.87,0,0,1-1.37-3c-.95-3-1.48-4.9-1.06-8,.55-4.06,3.05-5.63,4.86-9.3,1.73-3.51,3.1-5.35,4.23-9.09a30.86,30.86,0,0,0,1.45-8.46,1.93,1.93,0,0,0-1.26.7c-.72.71-1.86,5.58-3.53,8.71a15.84,15.84,0,0,1-4.4,5.48c-3.62,3-8,3.91-9.59,6.56a9.53,9.53,0,0,0-1.57,6.84c.47,3.6,2.5,5.32,5.29,7.64a16.39,16.39,0,0,0,3.34,2Zm105.12-5a1.07,1.07,0,0,1,.85-1.05s.13,0,.13-.36-.11-.32-.11-.32h-1.84c-.56,0-1.16,1-1.16,1.81a1.33,1.33,0,0,0,.43,1l-1.71,3.89.12.19h2l1.72-4a.58.58,0,0,0,.05-.18.31.31,0,0,0-.09-.2A1.07,1.07,0,0,1,323.55,422Zm-6.16,0a1.07,1.07,0,0,1,.86-1.05s.12,0,.12-.36-.11-.32-.11-.32h-1.84c-.56,0-1.16,1-1.16,1.81a1.3,1.3,0,0,0,.44,1L314,427.05l.12.19h2l1.72-4a.58.58,0,0,0,.05-.18.31.31,0,0,0-.09-.2A1.07,1.07,0,0,1,317.39,422Zm-6.16,0a1.07,1.07,0,0,1,.86-1.05s.13,0,.13-.36-.12-.32-.12-.32h-1.84c-.56,0-1.16,1-1.16,1.81a1.3,1.3,0,0,0,.44,1l-1.72,3.89.12.19H310l1.71-4a.58.58,0,0,0,.05-.18.27.27,0,0,0-.09-.2A1.07,1.07,0,0,1,311.23,422Zm-6.16,0a1.07,1.07,0,0,1,.86-1.05s.13,0,.13-.36-.11-.32-.11-.32H304.1c-.56,0-1.15,1-1.15,1.81a1.3,1.3,0,0,0,.43,1l-1.71,3.89.11.19h2.05l1.71-4a.39.39,0,0,0,0-.18.27.27,0,0,0-.09-.2A1.07,1.07,0,0,1,305.07,422Zm-6.15,0a1.06,1.06,0,0,1,.85-1.05s.13,0,.13-.36-.11-.32-.11-.32h-1.85c-.56,0-1.15,1-1.15,1.81a1.33,1.33,0,0,0,.43,1l-1.71,3.89.12.19h2l1.72-4a.43.43,0,0,0,0-.18.26.26,0,0,0-.08-.2A1,1,0,0,1,298.92,422Zm-40.69,0a1.06,1.06,0,0,1,.85-1.05s.13,0,.13-.36-.11-.32-.11-.32h-1.85c-.56,0-1.15,1-1.15,1.81a1.33,1.33,0,0,0,.43,1l-1.71,3.89.12.19h2l1.72-4a.58.58,0,0,0,.05-.18.31.31,0,0,0-.09-.2A1.07,1.07,0,0,1,258.23,422Zm34.53,0a1.06,1.06,0,0,1,.85-1.05s.13,0,.13-.36-.11-.32-.11-.32h-1.86c-.45-1.39-.85-2.81-1.25-4.25-.47-1.72-.82-3.24-1.07-4.68-1.61-2.44-3.62-4.13-3.66-7.39-.06-2.56,1.48-4.25,3-6,.77-.92.64-1,1-2.31,0,0,.59-2.19,1-3.66,1.48-5.81,4-8.54,5.68-14.28,1.42-4.8,2.38-7.54,2.73-12.53a36.92,36.92,0,0,0-.08-7.38l-.09-.28c-1.23-.06-1.34,1.22-1.39,2.14-.42,6.93-3,9.35-7.32,13.9-1.24,1.3-3.9,2.51-5.5,3.33-7.07,3.61-12.21,7.72-15.24,13.62a17.93,17.93,0,0,0-1.2,4,18.94,18.94,0,0,0-.38,3c-.69,1.45,2.26,3.13,2.65,6.37a8.44,8.44,0,0,1-1,5.56c.11.19,3.71,6.31,7.41,9.74a21.5,21.5,0,0,0,1.82,1.5,2.49,2.49,0,0,0-.53,1.43,1.3,1.3,0,0,0,.44,1L277,427.05l.12.19h2.05l1.71-4a.58.58,0,0,0,0-.18.27.27,0,0,0-.09-.2,1.08,1.08,0,0,1,.25-1.86,1,1,0,0,1,.53.89,1.34,1.34,0,0,1-.07.4h2.9a1.25,1.25,0,0,0,.43.83l-.35.79-1.75,3.25.5,0h2l1.72-4a.58.58,0,0,0,.05-.18.31.31,0,0,0-.09-.2,1.08,1.08,0,0,1,.32-1.89,1,1,0,0,1,.56.92,1.06,1.06,0,0,1-.08.4h2.81a1.24,1.24,0,0,0,.42.83l-.34.78L289,427.2l.5,0h2l1.72-4a.58.58,0,0,0,0-.18.31.31,0,0,0-.09-.2A1.07,1.07,0,0,1,292.76,422Zm-18.09,0a1.06,1.06,0,0,1,.85-1.05s.13,0,.13-.36-.11-.32-.11-.32h-1.85c-.56,0-1.15,1-1.15,1.81a1.33,1.33,0,0,0,.43,1l-1.71,3.89.12.19h2l1.72-4a.58.58,0,0,0,.05-.18.31.31,0,0,0-.09-.2A1.07,1.07,0,0,1,274.67,422Z" transform="translate(-159.49 -329.37)" fill="#fff"/><path d="M162.57,450.33c0-1.63.14-2.84-1.45-2.84-.57,0-1.56.2-1.56-.77,0-.65.57-.77,1-.93,2.51-1,7.29-1.06,10-1.06a18.73,18.73,0,0,1,5.8.85,5.87,5.87,0,0,1,3.79,5.48c0,4.13-3.54,5.22-6.44,5.47,3.86.2,7.36,1.94,7.36,7.05a6.86,6.86,0,0,1-2.8,5.84c-1.84,1.29-3.78,1.38-5.83,1.38-3.4,0-6.72-.17-10.05-.17-.71,0-1.34.17-2,.17a.77.77,0,0,1-.85-.86c0-.64.53-.77.95-.85,2.3-.44,2.13-1.29,2.13-3.93Zm5.83,3.81c0,1.74,0,1.66,1.31,1.66,2.73,0,4.53-1.5,4.53-4.95,0-2.59-1.56-4.58-3.82-4.58a2.56,2.56,0,0,0-1.84.61c-.32.37-.18,1.38-.18,1.95Zm0,10.82c0,2.35.36,4.38,2.69,4.38,2.87,0,4.07-2.6,4.07-5.6,0-2.19-.81-4.46-2.51-5.55a5.51,5.51,0,0,0-3.29-.73c-.92,0-1,.57-1,1.66Z" transform="translate(-159.49 -329.37)" fill="#fff"/><path d="M190.3,454.74c.6,0,2.09-3.08,5-3.08a3.08,3.08,0,0,1,3,3.08,3.14,3.14,0,0,1-2.94,3.29c-2.26,0-2.51-2.35-3.57-2.35-1.77,0-1.49,4.21-1.49,5.47v4a14.46,14.46,0,0,0,.14,3.24c.18.61,1.28.57,1.91.69a.93.93,0,0,1,.85.85c0,.69-.63.77-1.09.77-1.49,0-3-.08-4.46-.08s-2.9.08-4.39.08c-.46,0-1.06-.08-1.06-.77,0-.52.43-.77.85-.85s1.59-.12,1.77-.69a13.83,13.83,0,0,0,.25-3.24v-6c0-1.7.1-2.63-1.56-2.87-.5-.05-1.06,0-1.06-.69s1.13-.86,1.52-1a9.79,9.79,0,0,0,4.56-2.75,1.47,1.47,0,0,1,1.28-.73c.56,0,.49,1.05.49,1.46Z" transform="translate(-159.49 -329.37)" fill="#fff"/><path d="M206.57,465.16a13.88,13.88,0,0,0,.15,3.24c.17.61,1.27.57,1.91.69a.93.93,0,0,1,.85.85c0,.69-.64.77-1.1.77-1.49,0-3-.08-4.46-.08s-2.9.08-4.38.08c-.46,0-1.07-.08-1.07-.77,0-.52.43-.77.85-.85s1.59-.12,1.77-.69a13.83,13.83,0,0,0,.25-3.24v-6c0-1.7.11-2.63-1.56-2.87-.49-.05-1.06,0-1.06-.69s1.13-.86,1.52-1a9.87,9.87,0,0,0,4.57-2.75,1.45,1.45,0,0,1,1.27-.73c.57,0,.49,1.05.49,1.46Zm-5.8-18.48a3.11,3.11,0,0,1,3.15-3.12,3,3,0,0,1,3.11,3.08,3.15,3.15,0,0,1-3.18,3.32A3.06,3.06,0,0,1,200.77,446.68Z" transform="translate(-159.49 -329.37)" fill="#fff"/><path d="M211.17,468.24c-.24-.28-.85-.81-.85-1.25,0-.77,1.17-1.1,1.63-1.3l1.42-.65c.1,0,1-.37,1-.57s-.39-.28-.46-.28a6.05,6.05,0,0,1-4-5.68,6.54,6.54,0,0,1,2.62-5.18,9,9,0,0,1,5.59-1.67,10,10,0,0,1,4.46.94,3.5,3.5,0,0,0,1.87.52h2.09c1.06-.12,1.41-.12,1.41,1.26,0,1.09-.24.85-1.16.85h-1.24s-.18,0-.18.16a5.6,5.6,0,0,1,.88,3c0,4.18-3.75,6.49-7,6.57l-1.83,0c-.39,0-2,0-2,.81,0,.41.61.85.92,1a5.89,5.89,0,0,0,2.09.21h2.69a10.57,10.57,0,0,1,4.32.64,4.79,4.79,0,0,1,2.65,4.42,7.06,7.06,0,0,1-3.61,5.8,11.93,11.93,0,0,1-6.61,1.7c-2.69,0-8.53-.69-8.53-4.86,0-3.24,4-3.33,4-4.1,0-.24-.6-.73-.71-.85Zm12.39,6.53c0-2.43-2.83-2.15-4.29-2.15a11,11,0,0,1-4.56-1,1.63,1.63,0,0,0-.67.36,2.85,2.85,0,0,0-.64,1.78c0,3.45,3,4.34,5.45,4.34C220.58,478.09,223.56,477.32,223.56,474.77ZM221,458.92c0-2.23-.32-5.92-2.9-5.92-2.41,0-2.76,2.6-2.76,4.83s.42,5.79,3,5.79C220.76,463.62,221,461,221,458.92Z" transform="translate(-159.49 -329.37)" fill="#fff"/><path d="M248.67,465.28a8.26,8.26,0,0,0,.25,3c.42.69,1.13.73,1.77.85a.92.92,0,0,1,.85.9c0,.68-.6.72-1.06.72-1.7,0-3.33-.08-5-.08-1.27,0-2.61.08-3.92.08-.43,0-.85-.12-.85-.72a.89.89,0,0,1,.7-.9,2.34,2.34,0,0,0,1.38-.69c.53-.77.39-2.31.39-3.12v-5.83c0-2.52,0-5.07-2.9-5.07a4.33,4.33,0,0,0-2.86,1.22c-.64.68-.57,1.25-.57,2.18v7.5a9.2,9.2,0,0,0,.18,2.8,1.81,1.81,0,0,0,1.13,1c.5.17,1.17.12,1.17.9,0,.56-.43.72-.85.72-.71,0-1.35-.08-2-.08-2.34,0-4.6.08-6.9.08-.46,0-1.1,0-1.1-.72a.94.94,0,0,1,.85-.9c.53-.12,1.27-.16,1.66-.69.57-.77.39-2.27.39-3.12V448.42c0-2.23.11-2.63-1.87-3-.29,0-.71-.16-.71-.61,0-.77,1-.85,1.52-.93a19.44,19.44,0,0,0,4.67-1.46,3.9,3.9,0,0,1,1.31-.44c.78,0,.6,1.37.6,1.94v9.73c0,.2,0,.41.21.41.5,0,2.69-2.44,5.77-2.44a6.13,6.13,0,0,1,4.63,2.07c1.24,1.46,1.24,3.53,1.24,5.35Z" transform="translate(-159.49 -329.37)" fill="#fff"/><path d="M258.82,462.41c0,1.5-.14,5.47,1.74,5.47,1.17,0,1.94-1.18,2.47-1.18.25,0,.43.25.43.57,0,.53-.71,1.34-1,1.66a6.48,6.48,0,0,1-4.6,2.07,4,4,0,0,1-3.25-1.7,8.49,8.49,0,0,1-1-4.5v-8.47a14,14,0,0,0-.11-1.71c-.07-.4-.49-.52-.85-.52s-1.59.2-1.59-.45.75-.93,1.13-1.09a9.87,9.87,0,0,0,4.71-4.42c.25-.53.6-1.34,1.2-1.34s.6.93.6,1.5v2.8c0,1.13.22,1.09,1.14,1.09h1.83c.75,0,1.28-.2,1.28.81s-.25,1.1-1.2,1.1H260c-1.17,0-1.17-.05-1.17,1.58Z" transform="translate(-159.49 -329.37)" fill="#fff"/><path d="M263.46,461.35c0-5.92,5.13-9.69,10-9.69a9.92,9.92,0,0,1,6.58,2.35,9.38,9.38,0,0,1,3.26,7,9.94,9.94,0,0,1-10.12,10A9.39,9.39,0,0,1,263.46,461.35Zm14.19.65a15.92,15.92,0,0,0-1.1-5.92c-.64-1.46-1.88-3-3.43-3-3.05,0-4,4.5-4,7.22,0,3,1.14,9.36,4.67,9.36C276.94,469.62,277.65,464.67,277.65,462Z" transform="translate(-159.49 -329.37)" fill="#fff"/><path d="M292.79,454.42c.56,0,2.33-2.76,5.8-2.76a6.41,6.41,0,0,1,4.45,1.67c1.49,1.37,1.46,3.08,1.46,5.06v6.77c0,1-.15,2.47.35,3.24.35.53,1.13.57,1.66.69a.94.94,0,0,1,.85.9c0,.68-.64.72-1.1.72-1.27,0-2.47-.08-3.75-.08-1.62,0-3.25.08-4.88.08-.39,0-.81-.12-.81-.72a.89.89,0,0,1,.71-.9,2.17,2.17,0,0,0,1.48-.89,8.4,8.4,0,0,0,.25-3v-6a8.54,8.54,0,0,0-.6-3.52,2.73,2.73,0,0,0-2.41-1.46,4,4,0,0,0-2.65,1.17c-1,.94-.81,1.79-.81,3.16v6.61a8.63,8.63,0,0,0,.24,3,2.21,2.21,0,0,0,1.49.89.89.89,0,0,1,.71.9c0,.6-.43.72-.82.72-1.62,0-3.25-.08-4.88-.08-1.27,0-2.48.08-3.75.08-.46,0-1.1,0-1.1-.72a.94.94,0,0,1,.85-.9c.53-.12,1.31-.16,1.67-.69.49-.77.35-2.27.35-3.24v-6c0-1.7.11-2.63-1.56-2.87-.49-.05-1.06,0-1.06-.69s1.13-.86,1.52-1a9.87,9.87,0,0,0,4.57-2.75,1.45,1.45,0,0,1,1.27-.73c.57,0,.5,1.05.5,1.46Z" transform="translate(-159.49 -329.37)" fill="#fff"/><path d="M339.3,466.58c1,1.34,1.56,2.19,3.08,2.47.5.08,1.14.16,1.14.89s-.78.86-1.31.86c-1.24,0-2.55-.25-3.82-.25-.78,0-1.56,0-2.37.08s-1.14-.28-1.7-1.09l-1.24-1.7c-.07-.13-.57-.85-.74-.85s-.29.2-.39.28c-2.3,2.51-4.11,4-7.4,4a6.81,6.81,0,0,1-7.07-7c0-4.22,3.15-5.92,6.12-7.22.21-.08.71-.28.71-.56,0-.53-2.41-3-2.41-6a5.28,5.28,0,0,1,2.3-4.38,8.88,8.88,0,0,1,5.09-1.38c2.8,0,7.29.69,7.29,4.95a4.11,4.11,0,0,1-2.05,3.69,10.74,10.74,0,0,1-3.22,1.41c-.14.05-.42.17-.42.37a3.07,3.07,0,0,0,.53.81l3.46,4.54c.11.12.29.37.43.37.32,0,1.63-2.32,1.63-3s-.89-.82-1.35-.9-1.2,0-1.2-.81.88-.77,1.41-.77h6.3c.42,0,1,.08,1,.73s-.64.81-1.14.85a3.65,3.65,0,0,0-2.4,1.14c-.43.4-3.15,3.73-3.15,4.34,0,.32.46.85.6,1Zm-13.72-8.39c-.11-.16-.18-.28-.35-.28s-1,.73-1.21,1a4.61,4.61,0,0,0-1.06,3c0,3,2.16,5.67,4.85,5.67a4.43,4.43,0,0,0,2.76-1c.17-.16.71-.57.71-.89s-.39-.61-.47-.73Zm5.45-5.11a4,4,0,0,0,.92-2.79c0-1.83-1.06-4.14-2.83-4.14-1.21,0-2,1-2,2.35,0,1.7,1.34,3.45,2.3,4.74.1.13.31.49.49.49A2,2,0,0,0,331,453.08Z" transform="translate(-159.49 -329.37)" fill="#fff"/><path d="M370.12,456.33c1.2,0,1.17,0,1.17-1.46v-3.94c0-2.47.21-3.52-2.06-4-.42-.08-1.13-.12-1.13-.81s.36-.77.85-.77c1.84,0,3.61.16,5.45.16s3.39-.16,5.06-.16c.49,0,.88.12.88.77s-.56.73-1,.81c-2.4.45-2.23,1.26-2.23,4v14.39c0,2.39-.14,3.37,2.09,3.77.46.08,1.13.21,1.13.94s-.39.77-.85.77c-1.84,0-3.61-.17-5.45-.17s-3.39.17-5.09.17c-.49,0-.85-.17-.85-.77s.53-.86,1-.94c2.33-.44,2.23-1.13,2.23-3.77v-6.2c0-1.09-.11-1-1.07-1h-6.29c-1.49,0-1.38-.16-1.38,1.5v5.67c0,2.39-.14,3.37,2.08,3.77.46.08,1.14.21,1.14.94s-.39.77-.85.77c-1.84,0-3.61-.17-5.45-.17s-3.4.17-5.09.17c-.5,0-.85-.17-.85-.77s.53-.86,1-.94c2.34-.44,2.23-1.13,2.23-3.77V450.93c0-2.47.21-3.52-2-4-.43-.08-1.13-.12-1.13-.81s.35-.77.85-.77c1.83,0,3.6.16,5.44.16s3.4-.16,5.06-.16c.5,0,.89.12.89.77s-.57.73-1,.81c-2.41.45-2.23,1.26-2.23,4v3.94c0,1.46,0,1.46,1.27,1.46Z" transform="translate(-159.49 -329.37)" fill="#fff"/><path d="M381.26,461.35c0-5.92,5.13-9.69,10-9.69a9.92,9.92,0,0,1,6.58,2.35,9.38,9.38,0,0,1,3.26,7A9.94,9.94,0,0,1,391,471,9.4,9.4,0,0,1,381.26,461.35Zm14.19.65a15.92,15.92,0,0,0-1.1-5.92c-.64-1.46-1.87-3-3.43-3-3,0-4,4.5-4,7.22,0,3,1.13,9.36,4.67,9.36C394.74,469.62,395.45,464.67,395.45,462Z" transform="translate(-159.49 -329.37)" fill="#fff"/><path d="M415.47,458a9.12,9.12,0,0,0,.78-2.84c0-1.06-.85-1.3-1.59-1.42-.46-.08-1.17,0-1.17-.77a.79.79,0,0,1,.88-.81c1.06,0,2.09.08,3.15.08s2.09-.08,3.11-.08c.46,0,1,.08,1,.73a.89.89,0,0,1-.81.85c-1.41.28-1.7.12-2.4,1.82l-5.81,13.87c-.46,1.09-.56,1.62-1.69,1.62s-1.06-.57-1.45-1.54l-5.27-12.85a18.18,18.18,0,0,0-1-2.19,1.84,1.84,0,0,0-1.24-.73c-.49-.12-1.13,0-1.13-.77s.67-.81,1.2-.81c1.35,0,2.76.08,4.18.08s3.11-.08,4.63-.08c.46,0,1.13,0,1.13.73s-.78.81-1.27.85-1.13.24-1.13.93a5.21,5.21,0,0,0,.42,1.46l2.44,6.49c.07.2.39,1.17.67,1.17s.5-.89.54-1.05Z" transform="translate(-159.49 -329.37)" fill="#fff"/><path d="M428.13,459.37c-.88,0-1.23-.13-1.23,1,0,3.93,2.3,7.82,6.12,7.82,2.69,0,3.82-2.11,4.67-2.11a.57.57,0,0,1,.53.61c0,.81-1.31,1.91-1.84,2.27a9.51,9.51,0,0,1-5.88,2c-5,0-9.26-4.18-9.26-9.93a9.42,9.42,0,0,1,9.62-9.41,8.24,8.24,0,0,1,5.34,1.91,5.7,5.7,0,0,1,2.19,4.26c0,1.49-.77,1.54-2,1.54Zm4-1.75a1.81,1.81,0,0,0,1.31-2,2.34,2.34,0,0,0-2.3-2.56,3.87,3.87,0,0,0-2.9,1.46,5.67,5.67,0,0,0-1,2.72c0,.73.64.65,1.17.65A18.18,18.18,0,0,0,432.13,457.62Z" transform="translate(-159.49 -329.37)" fill="#fff"/><path d="M219.58,503.63c-.07,1.34,0,1.87-1.14,2.6a11.94,11.94,0,0,1-6.79,1.86c-3.11,0-6.76-.81-9.3-3a13.61,13.61,0,0,1-4.5-10A13.22,13.22,0,0,1,202.42,485a15.83,15.83,0,0,1,9.94-3.41,18.7,18.7,0,0,1,5.31.85c1,.33,1,.49,1.13,1.62l.28,2.07a6.78,6.78,0,0,1,.14,1.18.64.64,0,0,1-.67.69c-1.63,0-1.73-4.83-6.51-4.83a7.18,7.18,0,0,0-5.84,3.65,15.39,15.39,0,0,0-1.94,7.86,16.6,16.6,0,0,0,1.77,7.79c1.34,2.39,3.46,4.05,6,4.05a5.51,5.51,0,0,0,3.72-1.54,11.78,11.78,0,0,0,2.33-3.73c.18-.44.42-.85.88-.85.78,0,.75.93.71,1.54Z" transform="translate(-159.49 -329.37)" fill="#fff"/><path d="M229.13,502a13.89,13.89,0,0,0,.14,3.24c.18.61,1.27.57,1.91.69.39.09.85.33.85.85,0,.69-.64.78-1.1.78-1.48,0-3-.09-4.46-.09s-2.9.09-4.38.09c-.46,0-1.06-.09-1.06-.78,0-.52.42-.76.85-.85s1.59-.12,1.76-.69a13.83,13.83,0,0,0,.25-3.24v-6c0-1.7.11-2.63-1.55-2.87-.5-.05-1.07,0-1.07-.69s1.14-.86,1.52-1a9.82,9.82,0,0,0,4.57-2.75,1.45,1.45,0,0,1,1.27-.73c.57,0,.5,1.05.5,1.46Zm-5.8-18.48a3.1,3.1,0,0,1,3.14-3.12,3,3,0,0,1,3.12,3.08,3.16,3.16,0,0,1-3.19,3.32A3.06,3.06,0,0,1,223.33,483.53Z" transform="translate(-159.49 -329.37)" fill="#fff"/><path d="M239.28,499.26c0,1.49-.14,5.47,1.73,5.47,1.17,0,2-1.18,2.48-1.18.25,0,.42.25.42.57,0,.53-.7,1.34-1,1.66a6.48,6.48,0,0,1-4.6,2.07,4,4,0,0,1-3.25-1.7,8.58,8.58,0,0,1-1-4.5v-8.47a14,14,0,0,0-.1-1.71c-.07-.4-.5-.52-.85-.52s-1.59.2-1.59-.45.74-.93,1.13-1.09a9.81,9.81,0,0,0,4.7-4.42c.25-.53.61-1.34,1.21-1.34s.6.93.6,1.5V488c0,1.13.21,1.09,1.13,1.09h1.84c.74,0,1.27-.2,1.27.81s-.24,1.1-1.2,1.1h-1.73c-1.17,0-1.17,0-1.17,1.58Z" transform="translate(-159.49 -329.37)" fill="#fff"/><path d="M258.45,493.42a4.91,4.91,0,0,0,.43-1.62c0-.93-.92-1.22-1.59-1.26s-1.35-.08-1.35-.93c0-.65.71-.65,1.13-.65,1,0,2,.08,3.05.08s2-.08,3-.08c.46,0,.92,0,.92.65s-.5.85-1,.93c-.89.16-1.17.08-1.77.93a19.7,19.7,0,0,0-1.66,3.53l-5.35,13-1.91,5.27c-.7,2.39-.56,3-2.9,3-1.55,0-3.11-.12-3.11-2.27a4.17,4.17,0,0,1,.46-2c.53-.81,1.34-.69,2.09-.65,1.06.05,1.91.29,2.65-.72a4.14,4.14,0,0,0,.74-1.95,7.25,7.25,0,0,0-.67-2.23l-5.23-12.12a21.26,21.26,0,0,0-1.56-3c-.46-.65-.78-.65-1.45-.77-.43-.08-1-.2-1-.89s.67-.69,1.21-.69c1.55,0,3.18.08,4.74.08,1.34,0,2.76-.08,4.14-.08.46,0,1.27,0,1.27.69s-.5.77-.92.89-1.38.16-1.38,1a6,6,0,0,0,.57,1.79l2.61,6.24c.11.2.46,1.26.75,1.26s.67-1,.74-1.3Z" transform="translate(-159.49 -329.37)" fill="#fff"/><path d="M295.1,503.63c-.07,1.34,0,1.87-1.13,2.6a11.94,11.94,0,0,1-6.79,1.86c-3.11,0-6.76-.81-9.3-3a13.61,13.61,0,0,1-4.5-10A13.22,13.22,0,0,1,278,485a15.83,15.83,0,0,1,9.94-3.41,18.57,18.57,0,0,1,5.3.85c1,.33,1,.49,1.14,1.62l.28,2.07a6.78,6.78,0,0,1,.14,1.18.64.64,0,0,1-.67.69c-1.63,0-1.74-4.83-6.51-4.83a7.17,7.17,0,0,0-5.84,3.65,15.39,15.39,0,0,0-1.94,7.86,16.72,16.72,0,0,0,1.76,7.79c1.35,2.39,3.47,4.05,6,4.05a5.47,5.47,0,0,0,3.71-1.54,11.8,11.8,0,0,0,2.34-3.73c.17-.44.42-.85.88-.85.78,0,.75.93.71,1.54Z" transform="translate(-159.49 -329.37)" fill="#fff"/><path d="M296.45,498.2c0-5.92,5.13-9.69,10-9.69a9.9,9.9,0,0,1,6.58,2.36,9.37,9.37,0,0,1,3.25,7,9.93,9.93,0,0,1-10.11,10A9.39,9.39,0,0,1,296.45,498.2Zm14.18.65a16,16,0,0,0-1.09-5.92c-.64-1.46-1.88-3-3.43-3-3.05,0-4,4.5-4,7.22,0,3,1.14,9.36,4.67,9.36C309.93,506.47,310.63,501.53,310.63,498.85Z" transform="translate(-159.49 -329.37)" fill="#fff"/><path d="M335.82,503.27c0,1.05.6,1.3,1.59,1.42.36,0,.67.16.67.65,0,.69-1.2.89-1.62,1l-3.68,1.21a6.2,6.2,0,0,1-1.49.49c-.63,0-.42-1.05-.42-1.5,0-.24.14-1.46-.32-1.46-.21,0-.53.29-.67.41-1.59,1.33-3.19,2.39-5.2,2.39a5,5,0,0,1-4-2,8.71,8.71,0,0,1-1.13-5v-6.49a8,8,0,0,0-.32-3c-.39-.69-1.1-.73-1.77-.89-.39-.08-.81-.28-.81-.85s.6-.65,1.06-.65c1.09,0,2.16.08,3.25.08s2.16-.08,3.26-.08c.46,0,.56.08.56.65v10.9a8,8,0,0,0,.53,3.16,2.4,2.4,0,0,0,2.09,1.26,4,4,0,0,0,2.65-1.38,3.27,3.27,0,0,0,.54-2.47v-6.65a8.13,8.13,0,0,0-.29-3.08,2.28,2.28,0,0,0-1.77-.89c-.39-.08-.81-.28-.81-.81,0-.73.6-.69,1.06-.69,1.1,0,2.19.08,3.29.08s2.19-.08,3.29-.08c.64,0,.46.81.46,1.38Z" transform="translate(-159.49 -329.37)" fill="#fff"/><path d="M346.82,491.27c.57,0,2.34-2.76,5.8-2.76a6.42,6.42,0,0,1,4.46,1.67c1.49,1.37,1.45,3.08,1.45,5.06V502c0,1-.14,2.47.36,3.24.35.53,1.13.57,1.66.69a1,1,0,0,1,.85.9c0,.68-.64.73-1.1.73-1.27,0-2.48-.09-3.75-.09-1.63,0-3.25.09-4.88.09-.39,0-.81-.13-.81-.73a.89.89,0,0,1,.7-.9,2.19,2.19,0,0,0,1.49-.89,8.63,8.63,0,0,0,.25-3v-6a8.54,8.54,0,0,0-.6-3.52,2.74,2.74,0,0,0-2.41-1.46,4,4,0,0,0-2.65,1.17c-1,.94-.82,1.79-.82,3.16V502a8.63,8.63,0,0,0,.25,3,2.19,2.19,0,0,0,1.49.89.89.89,0,0,1,.7.9c0,.6-.42.73-.81.73-1.63,0-3.25-.09-4.88-.09-1.28,0-2.48.09-3.75.09-.46,0-1.1-.05-1.1-.73a1,1,0,0,1,.85-.9c.53-.12,1.31-.16,1.66-.69.5-.77.36-2.27.36-3.24v-6c0-1.7.1-2.63-1.56-2.87-.49-.05-1.06,0-1.06-.69s1.13-.86,1.52-1a9.79,9.79,0,0,0,4.56-2.75,1.47,1.47,0,0,1,1.28-.73c.56,0,.49,1.05.49,1.46Z" transform="translate(-159.49 -329.37)" fill="#fff"/><path d="M371.55,490a4.14,4.14,0,0,0-2.83,1.79,8.51,8.51,0,0,0-1.52,5c0,4.14,2.51,8.27,6.47,8.27,2.59,0,3.36-1.5,4-1.5.24,0,.42.29.42.49,0,.93-1,1.66-1.59,2.11a9.49,9.49,0,0,1-5.41,1.66c-5.2,0-9.45-3.69-9.45-9.73,0-6.2,5.84-9.61,10.75-9.61a8.53,8.53,0,0,1,4.32,1.1,1.65,1.65,0,0,1,1,1.7c0,1-.32,3.69-1.49,3.69s-1.66-1.38-2.12-2.27C373.53,491.51,373,490,371.55,490Z" transform="translate(-159.49 -329.37)" fill="#fff"/><path d="M387.43,502a13.88,13.88,0,0,0,.15,3.24c.17.61,1.27.57,1.91.69.39.09.85.33.85.85,0,.69-.64.78-1.1.78-1.49,0-3-.09-4.46-.09s-2.9.09-4.39.09c-.46,0-1.06-.09-1.06-.78,0-.52.43-.76.85-.85s1.59-.12,1.77-.69a13.83,13.83,0,0,0,.25-3.24v-6c0-1.7.1-2.63-1.56-2.87-.49-.05-1.06,0-1.06-.69s1.13-.86,1.52-1a9.87,9.87,0,0,0,4.57-2.75,1.45,1.45,0,0,1,1.27-.73c.56,0,.49,1.05.49,1.46Zm-5.8-18.48a3.1,3.1,0,0,1,3.15-3.12,3,3,0,0,1,3.11,3.08,3.15,3.15,0,0,1-3.18,3.32A3.06,3.06,0,0,1,381.63,483.53Z" transform="translate(-159.49 -329.37)" fill="#fff"/><path d="M398.75,504.16c0,.12,0,1.5,1.95,1.78.46.09,1.13.21,1.13.94s-.35.69-.81.69c-1.7,0-3.33-.09-4.95-.09s-3.4.09-5.1.09c-.49,0-.85-.09-.85-.69s.53-.85,1-.94c2.16-.28,2.16-1.66,2.16-1.78V485.27c0-2.23.1-2.63-1.88-3-.28,0-.71-.16-.71-.61,0-.77,1-.85,1.52-.93a19.3,19.3,0,0,0,4.67-1.46,4,4,0,0,1,1.31-.44c.78,0,.6,1.38.6,1.94Z" transform="translate(-159.49 -329.37)" fill="#fff"/></svg>