<svg xmlns="http://www.w3.org/2000/svg" width="42.036" height="42.036" viewBox="0 0 42.036 42.036">
  <g id="Group_297" data-name="Group 297" transform="translate(-919 -2899)">
    <g id="Group_295" data-name="Group 295" transform="translate(919 2899)">
      <rect id="Instagram" width="42.036" height="42.036" transform="translate(0)" fill="#fff"/>
    </g>
    <g id="Group_296" data-name="Group 296" transform="translate(914.748 2914.723)">
      <path id="Path_574" data-name="Path 574" d="M25.394-9.723A15.142,15.142,0,1,0,40.536,5.419,15.142,15.142,0,0,0,25.394-9.723Zm6.944,21.84a.943.943,0,0,1-1.3.314c-3.556-2.173-8.031-2.664-13.3-1.46a.943.943,0,1,1-.42-1.84c5.768-1.319,10.715-.751,14.707,1.688A.944.944,0,0,1,32.338,12.117Zm1.853-4.123a1.181,1.181,0,0,1-1.624.389A19.875,19.875,0,0,0,17.479,6.618a1.18,1.18,0,1,1-.686-2.259A22.09,22.09,0,0,1,33.8,6.371,1.181,1.181,0,0,1,34.191,7.994Zm.16-4.293C29.47.8,21.419.535,16.76,1.95a1.416,1.416,0,1,1-.822-2.71c5.349-1.624,14.24-1.31,19.859,2.025A1.416,1.416,0,0,1,34.351,3.7Z" fill="#7a8086"/>
    </g>
  </g>
</svg>
