<svg xmlns="http://www.w3.org/2000/svg" width="20.156" height="20.156" viewBox="0 0 20.156 20.156">
  <g id="Group_293" data-name="Group 293" transform="translate(-1245 -25)">
    <rect id="LinkedIn" width="20.156" height="20.156" transform="translate(1245 25)"/>
    <path id="LinkedIn-2" data-name="LinkedIn" d="M697.785,989.111v5.216h-3.024V989.46c0-1.223-.438-2.057-1.532-2.057a1.655,1.655,0,0,0-1.552,1.106,2.069,2.069,0,0,0-.1.737v5.08h-3.025s.041-8.243,0-9.1h3.025v1.289l-.02.03h.02v-.03a3,3,0,0,1,2.726-1.5C696.293,985.017,697.785,986.317,697.785,989.111Zm-12.4-8.266a1.576,1.576,0,1,0-.04,3.144h.02a1.577,1.577,0,1,0,.02-3.144Zm-1.532,13.482h3.024v-9.1h-3.024Z" transform="translate(564.197 -952.508)" fill="#fff"/>
  </g>
</svg>
