<svg id="Group_266" data-name="Group 266" xmlns="http://www.w3.org/2000/svg" width="164.967" height="59.407" viewBox="0 0 164.967 59.407">
  <path id="Path_530" data-name="Path 530" d="M11.3,39.252a7.383,7.383,0,0,1-3.982,1.27,3.424,3.424,0,0,1-3.7-3.252c0-2.071,1.878-3.34,3.895-3.34a7.051,7.051,0,0,1,3.74,1.269V32.069a13.434,13.434,0,0,0-4.539-.885C3.166,31.184,0,33.061,0,37.219c0,3.6,2.5,6.05,6.661,6.05A9.811,9.811,0,0,0,11.3,42.225Z" transform="translate(0 12.208)" fill="#fff"/>
  <path id="Path_531" data-name="Path 531" d="M18.658,42.189V33.545H15.6v5.079c-.225.331-.817,1.357-1.86,1.357-1.322,0-1.252-1.391-1.252-1.947V33.545H9.424v5.079c0,.782-.1,3.721,3.113,3.721a3.848,3.848,0,0,0,3.06-1.39v1.234Z" transform="translate(3.689 13.132)" fill="#fff"/>
  <path id="Path_532" data-name="Path 532" d="M32.918,36.964c0-2.228-.991-3.53-3.113-3.53a4.223,4.223,0,0,0-3.356,1.686,2.866,2.866,0,0,0-2.834-1.686,3.871,3.871,0,0,0-3.045,1.391V33.588H17.51v8.644h3.06V37.153c.366-.468.87-1.355,1.844-1.355,1.009,0,1.27.747,1.27,1.826v4.609h3.06V37.153c.227-.33.853-1.355,1.86-1.355.853,0,1.252.593,1.252,1.826v4.609h3.061Z" transform="translate(6.855 13.088)" fill="#fff"/>
  <path id="Path_533" data-name="Path 533" d="M36.341,38.74c0,1.965-1.252,2.19-1.686,2.19a2.18,2.18,0,0,1-1.549-.609v-3.3a2.952,2.952,0,0,1,1.549-.557c.817,0,1.686.7,1.686,2.279m3.217.068c0-2.243-1.234-4.538-4.14-4.538a3.967,3.967,0,0,0-2.313.66V31.3h-3.06V43.069h3.06v-.782a3.487,3.487,0,0,0,2.521.938c1.739,0,3.931-1.234,3.931-4.417" transform="translate(11.762 12.251)" fill="#fff"/>
  <path id="Path_534" data-name="Path 534" d="M44.2,37.138h-3.3a1.689,1.689,0,0,1,1.7-1.828c1.026,0,1.6.732,1.6,1.828m2.869,1.513v-.609c0-3.479-2.347-4.607-4.279-4.607-3.3,0-4.955,1.929-4.955,4.433s1.652,4.521,4.955,4.521a8.185,8.185,0,0,0,4.053-.92v-1.9a8.174,8.174,0,0,1-3.409.87,2.422,2.422,0,0,1-2.452-1.791Z" transform="translate(14.81 13.088)" fill="#fff"/>
  <path id="Path_535" data-name="Path 535" d="M45.643,33.59v8.644H48.7V38.511c.608-1.67,1.234-2.054,2.016-2.054a1.918,1.918,0,0,1,1.41.662l1.13-3.061a3.2,3.2,0,0,0-1.826-.625,3.305,3.305,0,0,0-2.73,2.243V33.59Z" transform="translate(17.868 13.088)" fill="#fff"/>
  <rect id="Rectangle_674" data-name="Rectangle 674" width="3.062" height="11.773" transform="translate(72.344 43.547)" fill="#fff"/>
  <path id="Path_536" data-name="Path 536" d="M60.545,40.147a2.42,2.42,0,0,1-1.254.591.817.817,0,0,1-.833-.888c0-.886.886-1.252,2.087-1.756Zm4.261,1.65V40.2a2.081,2.081,0,0,1-.782.244c-.333,0-.419-.331-.419-.939V36.164c0-1.653-1.2-2.731-3.772-2.731a6.979,6.979,0,0,0-4.07,1.183v2.349a4.946,4.946,0,0,1,3.426-1.583c1.252,0,1.357.7,1.357,1.34a10.581,10.581,0,0,1-1.791.626c-1.878.59-3.288,1.181-3.288,2.869,0,.938.54,2.173,2.573,2.173a3.811,3.811,0,0,0,2.68-.921c.1.312.312.921,1.478.921a6.38,6.38,0,0,0,2.609-.593" transform="translate(21.713 13.088)" fill="#fff"/>
  <path id="Path_537" data-name="Path 537" d="M63.115,33.59v8.644h3.061v-5.08c.278-.363.835-1.355,1.86-1.355,1.322,0,1.252,1.391,1.252,1.947v4.489h3.06v-5.08c0-.781.1-3.719-3.113-3.719a3.887,3.887,0,0,0-3.06,1.39V33.59Z" transform="translate(24.708 13.088)" fill="#fff"/>
  <path id="Path_538" data-name="Path 538" d="M77.352,40.321a2.22,2.22,0,0,1-1.547.609c-.764,0-1.686-.522-1.686-2.19,0-1.444.749-2.279,1.686-2.279a3.009,3.009,0,0,1,1.547.557Zm3.061,2.748V31.3H77.352v3.635a3.679,3.679,0,0,0-2.311-.66c-2.9,0-4.14,2.295-4.14,4.538,0,3.182,2.192,4.417,3.931,4.417a3.483,3.483,0,0,0,2.52-.938v.782Z" transform="translate(27.756 12.251)" fill="#fff"/>
  <path id="Path_539" data-name="Path 539" d="M81.776,31.3V43.069h8.989V40.252H85.324V31.3Z" transform="translate(32.013 12.251)" fill="#fff"/>
  <path id="Path_540" data-name="Path 540" d="M95.569,37.9c0,1.321-.59,2.207-1.739,2.207S92.09,39.224,92.09,37.9s.591-2.193,1.739-2.193,1.739.87,1.739,2.193m3.217,0c0-2.523-1.652-4.469-4.956-4.469s-4.956,1.947-4.956,4.469,1.652,4.485,4.956,4.485,4.956-1.965,4.956-4.485" transform="translate(34.791 13.088)" fill="#fff"/>
  <path id="Path_541" data-name="Path 541" d="M103.261,40.321a2.226,2.226,0,0,1-1.547.609c-.765,0-1.686-.522-1.686-2.19,0-1.444.747-2.279,1.686-2.279a3.009,3.009,0,0,1,1.547.557Zm3.061,2.748V31.3h-3.061v3.635a3.681,3.681,0,0,0-2.313-.66c-2.9,0-4.138,2.295-4.138,4.538,0,3.182,2.19,4.417,3.93,4.417a3.487,3.487,0,0,0,2.521-.938v.782Z" transform="translate(37.898 12.251)" fill="#fff"/>
  <path id="Path_542" data-name="Path 542" d="M110.417,36.851a1.453,1.453,0,0,1-1.528,1.408,1.358,1.358,0,0,1-1.428-1.375,1.489,1.489,0,0,1,1.513-1.478,1.448,1.448,0,0,1,1.443,1.444m-1.25,6.051c.417,0,1.86.035,1.86.9,0,.7-.818,1.009-1.913,1.009-.366,0-1.948,0-1.948-.975,0-.66.59-.938,2-.938m4.624-7.514V33.546h-4.746c-2.347,0-4.244.973-4.244,3.3a2.919,2.919,0,0,0,2.382,2.782,1.5,1.5,0,0,0-1.32,1.461,1.221,1.221,0,0,0,.747,1.1c-1.9.244-2.051,1.461-2.051,1.809,0,1.284,1.216,2.276,4.468,2.276,3.3,0,4.436-1.181,4.436-2.747,0-2.244-2.455-2.435-3.324-2.5-1.165-.1-1.546-.122-1.546-.54,0-.47.661-.555,1.06-.575,2.225-.121,3.427-1.39,3.427-2.815a2.17,2.17,0,0,0-.8-1.706Z" transform="translate(40.932 13.132)" fill="#fff"/>
  <path id="Path_543" data-name="Path 543" d="M118.285,37.138h-3.3a1.689,1.689,0,0,1,1.7-1.828c1.026,0,1.6.732,1.6,1.828m2.869,1.513v-.609c0-3.479-2.347-4.607-4.279-4.607-3.3,0-4.955,1.929-4.955,4.433s1.652,4.521,4.955,4.521a8.185,8.185,0,0,0,4.053-.92v-1.9a8.174,8.174,0,0,1-3.409.87,2.422,2.422,0,0,1-2.452-1.791Z" transform="translate(43.813 13.088)" fill="#fff"/>
  <path id="Path_544" data-name="Path 544" d="M96.763,7.9A4.012,4.012,0,0,0,94.09,4.219L81.6,0,69.116,4.219A4.011,4.011,0,0,0,66.44,7.9h-.01V37.927H82.165V27.088a.948.948,0,0,1,.87-1.01h.889c-.184-.277-.573-.455-.573-1.213,0-.934,1.622-1.458,1.622-1.458h0s1.624.525,1.624,1.458c0,.758-.388.936-.573,1.213h.889a.948.948,0,0,1,.87,1.01v10.84h8.989V7.9ZM70.529,7.179a2.189,2.189,0,0,1,1.245-.227,1.514,1.514,0,0,1,.795.612,1.224,1.224,0,0,1-.039-.692.97.97,0,0,1,.518-.635L74.3,5.624v1.4a1.259,1.259,0,0,1-.192.712.729.729,0,0,1-.5.324.728.728,0,0,1,.5.326A1.256,1.256,0,0,1,74.3,9.1v1.4l-1.248-.615a.96.96,0,0,1-.518-.633,1.218,1.218,0,0,1,.039-.69,1.521,1.521,0,0,1-.795.611,2.166,2.166,0,0,1-1.245-.227c-.129-.049-1.173-.5-2.057-.884C69.356,7.681,70.4,7.229,70.529,7.179ZM74.3,35.627h-5.62V27.088a.949.949,0,0,1,.871-1.01h.889c-.182-.277-.573-.454-.573-1.212,0-.935,1.624-1.461,1.624-1.461h0s1.624.526,1.624,1.461c0,.758-.39.935-.572,1.212h.888a.947.947,0,0,1,.87,1.01Zm0-13.122h-5.62V16.411a.95.95,0,0,1,.871-1.01h.889c-.182-.276-.573-.455-.573-1.213,0-.934,1.624-1.46,1.624-1.46h0s1.624.526,1.624,1.46c0,.758-.39.938-.572,1.213h.888a.948.948,0,0,1,.87,1.01Zm6.744,13.122h-5.62V27.088a.947.947,0,0,1,.87-1.01h.891c-.185-.277-.575-.454-.575-1.212,0-.935,1.624-1.461,1.624-1.461h0s1.622.526,1.622,1.461c0,.758-.39.935-.573,1.212h.891a.949.949,0,0,1,.87,1.01Zm0-13.122h-5.62V16.411a.948.948,0,0,1,.87-1.01h.891c-.185-.276-.575-.455-.575-1.213,0-.934,1.624-1.46,1.624-1.46h0s1.622.526,1.622,1.46c0,.758-.39.938-.573,1.213h.891a.95.95,0,0,1,.87,1.01Zm.2-14.431h0a1.126,1.126,0,0,1-1.094,1.138,1,1,0,0,1-.259-.033,1.687,1.687,0,0,1,.239.942c0,1.212-1.9,1.776-1.9,1.776s-1.894-.564-1.894-1.776a1.664,1.664,0,0,1,.239-.942,1.022,1.022,0,0,1-.262.033A1.127,1.127,0,0,1,75.22,8.075h0V8.051h0a1.126,1.126,0,0,1,1.094-1.138,1.022,1.022,0,0,1,.262.033A1.66,1.66,0,0,1,76.336,6c0-1.212,1.894-1.774,1.894-1.774s1.9.562,1.9,1.774a1.682,1.682,0,0,1-.239.943,1,1,0,0,1,.259-.033,1.125,1.125,0,0,1,1.094,1.138h0v.024Zm6.543,14.431h-5.62V16.411a.95.95,0,0,1,.871-1.01h.891c-.185-.276-.575-.455-.575-1.213,0-.934,1.624-1.46,1.624-1.46h0s1.624.526,1.624,1.46c0,.758-.391.938-.575,1.213h.889a.948.948,0,0,1,.87,1.01Zm.2-14.432h0A1.131,1.131,0,0,1,86.89,9.214a1.1,1.1,0,0,1-.263-.035,1.661,1.661,0,0,1,.239.942c0,1.212-1.892,1.774-1.892,1.774s-1.9-.562-1.9-1.774a1.685,1.685,0,0,1,.238-.942,1.065,1.065,0,0,1-.259.035,1.128,1.128,0,0,1-1.094-1.141h0V8.052h0a1.086,1.086,0,0,1,1.353-1.108A1.681,1.681,0,0,1,83.079,6c0-1.212,1.9-1.774,1.9-1.774S86.867,4.791,86.867,6a1.658,1.658,0,0,1-.239.942,1.173,1.173,0,0,1,.263-.033,1.13,1.13,0,0,1,1.094,1.141h0v.021Zm6.541,27.554h-5.62V27.088a.947.947,0,0,1,.87-1.01h.891c-.184-.277-.576-.454-.576-1.212,0-.935,1.625-1.461,1.625-1.461h0s1.625.526,1.625,1.461c0,.758-.392.935-.576,1.212h.892a.948.948,0,0,1,.87,1.01Zm0-13.122h-5.62V16.411a.948.948,0,0,1,.87-1.01h.891c-.184-.276-.576-.455-.576-1.213,0-.934,1.625-1.46,1.625-1.46h0s1.625.526,1.625,1.46c0,.758-.392.938-.576,1.213h.892a.949.949,0,0,1,.87,1.01ZM92.674,8.946a2.171,2.171,0,0,1-1.247.227,1.528,1.528,0,0,1-.795-.611,1.213,1.213,0,0,1,.04.69.964.964,0,0,1-.52.633l-1.245.615V9.1a1.245,1.245,0,0,1,.192-.712.725.725,0,0,1,.5-.326.726.726,0,0,1-.5-.324,1.247,1.247,0,0,1-.192-.712v-1.4l1.245.614a.974.974,0,0,1,.52.635,1.218,1.218,0,0,1-.04.692,1.521,1.521,0,0,1,.795-.612,2.194,2.194,0,0,1,1.247.227c.129.05,1.173.5,2.055.884C93.848,8.443,92.8,8.9,92.674,8.946Z" transform="translate(26.005)" fill="#fff"/>
</svg>
